<?xml version="1.0" encoding="utf-8"?>
<!-- Generator: Adobe Illustrator 19.1.0, SVG Export Plug-In . SVG Version: 6.00 Build 0)  -->
<svg version="1.1" id="Layer_1" xmlns="http://www.w3.org/2000/svg" xmlns:xlink="http://www.w3.org/1999/xlink" x="0px" y="0px"
	 viewBox="0 0 45.2 50.5" style="enable-background:new 0 0 45.2 50.5;" xml:space="preserve">
<style type="text/css">
	.st0{fill-rule:evenodd;clip-rule:evenodd;fill:#191717;}
</style>
<path class="st0" d="M23.6,10.4c-11,0-19.9,8.9-19.9,19.9c0,8.8,5.7,16.2,13.6,18.9c1,0.2,1.4-0.4,1.4-1c0-0.5,0-1.7,0-3.4
	c-5.5,1.2-6.7-2.7-6.7-2.7c-0.9-2.3-2.2-2.9-2.2-2.9c-1.8-1.2,0.1-1.2,0.1-1.2c2,0.1,3,2,3,2c1.8,3,4.7,2.2,5.8,1.7
	c0.2-1.3,0.7-2.2,1.3-2.7c-4.4-0.5-9.1-2.2-9.1-9.8c0-2.2,0.8-3.9,2-5.3c-0.2-0.5-0.9-2.5,0.2-5.3c0,0,1.7-0.5,5.5,2
	c1.6-0.4,3.3-0.7,5-0.7c1.7,0,3.4,0.2,5,0.7c3.8-2.6,5.5-2,5.5-2c1.1,2.7,0.4,4.8,0.2,5.3c1.3,1.4,2,3.2,2,5.3
	c0,7.6-4.6,9.3-9.1,9.8c0.7,0.6,1.3,1.8,1.3,3.7c0,2.7,0,4.8,0,5.5c0,0.5,0.4,1.2,1.4,1c7.9-2.6,13.6-10.1,13.6-18.9
	C43.5,19.3,34.6,10.4,23.6,10.4z"/>
</svg>
