<?xml version="1.0" encoding="utf-8"?>
<!-- Generator: Adobe Illustrator 19.1.0, SVG Export Plug-In . SVG Version: 6.00 Build 0)  -->
<svg version="1.1" id="Layer_1" xmlns="http://www.w3.org/2000/svg" xmlns:xlink="http://www.w3.org/1999/xlink" x="0px" y="0px"
	 viewBox="0 0 45.2 50.5" style="enable-background:new 0 0 45.2 50.5;" xml:space="preserve">
<style type="text/css">
	.st0{fill:#E84B4F;}
</style>
<g>
	<path class="st0" d="M14.9,29.2c0,0.3,0,0.6,0.1,0.9c0.2,1.6,0.3,3.2,0.5,4.8c0.2,1.9-0.1,1.6,1.8,2.2c2.8,0.8,5.8,1,8.7,0.7
		c1.6-0.2,3.2-0.6,4.9-0.9c0.6-0.1,0.9-0.4,1-1.1c0.1-1.7,0.4-3.3,0.6-5c0.1-0.9,0.2-1.8,0.3-2.7c-0.7,0.4-1.2,0.8-1.9,1.1
		c-0.4,0.2-1,0.2-1.3-0.2c-0.3-0.4,0-0.8,0.2-1.2c0.2-0.3,0.5-0.6,0.7-0.9c0.3-0.3,0.5-0.7,0.8-1c0-0.1-0.1-0.1-0.1-0.2
		c-0.3,0.2-0.7,0.2-0.9,0.5c-0.5,0.6-1,1.2-1.3,1.9c-0.5,1.1-0.9,2.2-1.4,3.3c-0.1,0.3-0.3,0.6-0.6,0.9c-0.1,0.1-0.4,0.1-0.5,0
		C26.1,32,26,31.7,26,31.6c0-0.3,0.1-0.6,0.3-0.9c0.3-0.8,0.7-1.5,1.1-2.3c-1.6,1-1.9,1.1-2.6,0.3c-1.4,0.8-1.7,0.7-1.9-0.4
		c-0.4,0.3-0.8,0.6-1.3,0.8c-0.4,0.1-0.9,0.1-1.2-0.2c-0.2-0.2-0.3-0.8-0.2-1.1c0.3-1,0.7-1.9,1.1-2.8c0.1-0.4,0.4-0.7,0.9-0.4
		c0.5,0.2,0.2,0.6,0.1,0.9c-0.3,0.7-0.6,1.3-0.8,2c-0.1,0.1,0,0.3,0,0.5c0.2,0,0.4,0,0.5-0.1c0.4-0.3,0.7-0.6,1-1
		c0.3-0.5,0.5-1.1,0.8-1.6c0.2-0.3,0.5-0.7,0.7-0.6c0.5,0.1,0.4,0.6,0.2,1c-0.2,0.4-0.3,0.7-0.4,1.1C24,27,23.9,27.5,23.7,28
		c0.7-0.1,1.1-0.3,1.3-0.9c0.7-1.9,1.5-3.7,2.2-5.6c0.2-0.4,0.4-0.9,0.9-0.7c0.6,0.2,0.3,0.7,0.1,1.1c-0.7,1.7-1.4,3.4-2.1,5.1
		c-0.1,0.3-0.2,0.6-0.3,1.1c0.4-0.2,0.6-0.3,0.8-0.4c0.9-0.6,1.6-1.3,1.9-2.4c0.1-0.2,0.4-0.4,0.6-0.6c0.1,0.2,0.3,0.4,0.4,0.6
		c0.4-0.2,0.8-0.6,1.3-0.7c0.3-0.1,0.8,0.1,1,0.3c0.2,0.2,0.2,0.7,0.1,1c-0.2,0.4-0.5,0.8-0.8,1.2c-0.2,0.3-0.5,0.7-0.8,1
		c0.1,0.1,0.1,0.1,0.2,0.2c0.6-0.5,1.2-0.9,1.7-1.4c0.2-0.2,0.4-0.6,0.5-0.9c0.3-2.3,0.5-4.5,0.7-6.8c0.2-1.7,0.3-3.3,0.5-4.9
		c-6.9,1.3-13.8,1.3-20.8,0c0.4,3.5,0.8,7,1.2,10.8c0.2-0.4,0.3-0.6,0.4-0.8c0.6-1,1.2-2,1.9-2.8c0.4-0.5,1.1-0.9,1.7-1.1
		c1.1-0.4,2.5,0.6,2.4,1.6c0,0.2-0.2,0.4-0.4,0.5c-0.1,0.1-0.4-0.1-0.5-0.2c-0.1-0.1-0.2-0.3-0.3-0.4c-0.4-0.5-0.7-0.6-1.3-0.3
		c-0.3,0.2-0.7,0.5-0.9,0.8c-0.9,1.1-1.5,2.4-1.9,3.8c-0.1,0.5-0.1,0.9-0.1,1.4c0,0.5,0.4,0.7,0.8,0.5c0.2-0.1,0.5-0.3,0.7-0.5
		c1-0.8,1.6-1.8,1.9-3c0.1-0.3,0.5-0.6,0.7-0.6c0.5,0,0.4,0.5,0.4,0.8c-0.1,0.3-0.1,0.6-0.2,0.9c-0.4,1.2-0.7,2.3-1.1,3.5
		c-0.1,0.4-0.2,0.7-0.4,1c-0.1,0.2-0.4,0.3-0.6,0.5c-0.1-0.2-0.3-0.5-0.3-0.7c0-0.4,0.2-0.9,0.3-1.3c0-0.1,0.1-0.3,0.1-0.5
		C16.9,28.6,16.2,29.5,14.9,29.2z M16.2,37.4c0.3,0.5,0.6,1,0.8,1.5c0.2,0.4,0.4,0.9,0.4,1.4c0.2,1.9,0.3,3.8,0.4,5.7
		c0.1,1.2,0.2,1.4,1.4,1.7c2,0.6,4.1,0.7,6.2,0.4c1.1-0.1,2.1-0.4,3.1-0.6c0.6-0.1,0.9-0.5,0.9-1.2c0-1.7,0.2-3.3,0.2-5
		c0-1.3,0.3-2.5,1.1-3.6c0.1-0.1,0.1-0.2,0.2-0.4C26.1,38.8,21.2,38.8,16.2,37.4z M13.1,12.8c0,0.1,0,0.2,0,0.3
		c0.4,0.2,0.8,0.4,1.2,0.4c1.6,0.2,3.1,0.5,4.7,0.6c3.5,0.3,7.1,0.2,10.6-0.1c1.2-0.1,2.4-0.4,3.6-0.6c0.3-0.1,0.6-0.3,0.9-0.5
		c-0.3-0.2-0.6-0.4-0.9-0.5c-0.6-0.2-1.2-0.3-1.8-0.4c-1.1-0.2-2.3-0.3-3.5-0.4c0.3-1.3,0.6-2.5,0.9-3.7c0.1-0.2,0.2-0.4,0.4-0.5
		c1.5-1.6,3.1-3.2,4.6-4.9c0.1-0.1,0.3-0.5,0.3-0.5c-0.3-0.3-0.6-0.7-0.9-0.9c-0.1-0.1-0.5,0.2-0.7,0.4C31,3.3,29.3,5,27.8,6.7
		c-0.2,0.3-0.4,0.6-0.5,0.9c-0.3,1.1-0.6,2.1-0.8,3.2c-0.1,0.6-0.4,0.8-1,0.7c-3.5-0.1-6.9,0-10.3,0.6
		C14.4,12.4,13.8,12.6,13.1,12.8z"/>
	<path class="st0" d="M14.9,29.2c1.2,0.3,2-0.5,2.9-1.2c-0.1,0.3-0.1,0.4-0.1,0.5c-0.1,0.4-0.3,0.9-0.3,1.3c0,0.2,0.2,0.5,0.3,0.7
		c0.2-0.2,0.5-0.3,0.6-0.5c0.2-0.3,0.3-0.7,0.4-1c0.4-1.2,0.7-2.3,1.1-3.5c0.1-0.3,0.2-0.6,0.2-0.9c0.1-0.4,0.1-0.8-0.4-0.8
		c-0.2,0-0.6,0.3-0.7,0.6c-0.3,1.2-0.9,2.2-1.9,3c-0.2,0.2-0.4,0.4-0.7,0.5c-0.5,0.2-0.8,0.1-0.8-0.5c0-0.5,0-1,0.1-1.4
		c0.3-1.4,1-2.7,1.9-3.8c0.3-0.3,0.6-0.6,0.9-0.8c0.5-0.4,0.9-0.2,1.3,0.3c0.1,0.1,0.2,0.3,0.3,0.4c0.2,0.1,0.4,0.3,0.5,0.2
		c0.2-0.1,0.3-0.3,0.4-0.5c0.1-1-1.3-2-2.4-1.6c-0.6,0.2-1.3,0.6-1.7,1.1c-0.7,0.9-1.3,1.9-1.9,2.8c-0.1,0.2-0.2,0.4-0.4,0.8
		c-0.4-3.7-0.8-7.3-1.2-10.8c7,1.3,13.8,1.3,20.8,0c-0.2,1.6-0.3,3.2-0.5,4.9c-0.2,2.3-0.5,4.5-0.7,6.8c0,0.3-0.2,0.7-0.5,0.9
		c-0.5,0.5-1.1,0.9-1.7,1.4c-0.1-0.1-0.1-0.1-0.2-0.2c0.3-0.3,0.6-0.6,0.8-1c0.3-0.4,0.6-0.8,0.8-1.2c0.1-0.3,0.1-0.8-0.1-1
		c-0.2-0.2-0.7-0.4-1-0.3c-0.5,0.1-0.9,0.5-1.3,0.7c-0.1-0.2-0.3-0.4-0.4-0.6c-0.2,0.2-0.6,0.3-0.6,0.6c-0.3,1.1-1,1.8-1.9,2.4
		c-0.2,0.1-0.4,0.2-0.8,0.4c0.1-0.5,0.2-0.8,0.3-1.1c0.7-1.7,1.4-3.4,2.1-5.1c0.2-0.4,0.5-0.8-0.1-1.1c-0.6-0.2-0.7,0.3-0.9,0.7
		c-0.7,1.9-1.5,3.7-2.2,5.6c-0.2,0.6-0.6,0.8-1.3,0.9c0.2-0.6,0.3-1,0.4-1.5c0.1-0.4,0.3-0.7,0.4-1.1c0.2-0.4,0.3-0.8-0.2-1
		c-0.2,0-0.6,0.4-0.7,0.6c-0.3,0.5-0.5,1.1-0.8,1.6c-0.2,0.4-0.6,0.7-1,1c-0.1,0.1-0.3,0.1-0.5,0.1c0-0.2-0.1-0.3,0-0.5
		c0.3-0.7,0.5-1.3,0.8-2c0.1-0.3,0.4-0.7-0.1-0.9c-0.5-0.2-0.7,0.1-0.9,0.4c-0.4,0.9-0.8,1.9-1.1,2.8c-0.1,0.3,0,0.9,0.2,1.1
		c0.3,0.2,0.8,0.3,1.2,0.2c0.5-0.1,0.9-0.5,1.3-0.8c0.2,1.1,0.6,1.1,1.9,0.4c0.7,0.8,1,0.7,2.6-0.3c-0.4,0.8-0.7,1.6-1.1,2.3
		C26.2,31,26,31.3,26,31.6c0,0.2,0.1,0.4,0.2,0.5c0.1,0.1,0.4,0.1,0.5,0c0.2-0.2,0.4-0.5,0.6-0.9c0.5-1.1,0.8-2.2,1.4-3.3
		c0.3-0.7,0.8-1.3,1.3-1.9c0.2-0.2,0.6-0.3,0.9-0.5c0,0.1,0.1,0.1,0.1,0.2c-0.3,0.3-0.5,0.7-0.8,1c-0.2,0.3-0.5,0.6-0.7,0.9
		c-0.3,0.4-0.5,0.8-0.2,1.2c0.3,0.5,0.9,0.4,1.3,0.2c0.6-0.3,1.2-0.7,1.9-1.1c-0.1,0.9-0.2,1.8-0.3,2.7c-0.2,1.7-0.4,3.3-0.6,5
		c-0.1,0.7-0.4,1-1,1.1c-1.6,0.3-3.2,0.8-4.9,0.9C23,38,20.1,37.8,17.2,37c-1.9-0.6-1.6-0.3-1.8-2.2c-0.1-1.6-0.3-3.2-0.5-4.8
		C15,29.8,15,29.5,14.9,29.2z"/>
	<path class="st0" d="M16.2,37.4c4.9,1.4,9.8,1.4,14.8,0c-0.1,0.2-0.1,0.3-0.2,0.4c-0.8,1.1-1,2.3-1.1,3.6c0,1.7-0.2,3.3-0.2,5
		c0,0.7-0.3,1-0.9,1.2c-1,0.2-2.1,0.5-3.1,0.6c-2.1,0.2-4.1,0.1-6.2-0.4c-1.2-0.3-1.3-0.5-1.4-1.7c-0.1-1.9-0.3-3.8-0.4-5.7
		c0-0.5-0.2-1-0.4-1.4C16.8,38.4,16.5,37.9,16.2,37.4z"/>
	<path class="st0" d="M13.1,12.8c0.6-0.2,1.3-0.5,1.9-0.6c3.4-0.6,6.9-0.7,10.3-0.6c0.6,0,0.9-0.1,1-0.7c0.2-1.1,0.5-2.2,0.8-3.2
		c0.1-0.3,0.3-0.7,0.5-0.9C29.3,5,31,3.3,32.6,1.6c0.2-0.2,0.6-0.4,0.7-0.4c0.4,0.2,0.7,0.5,0.9,0.9c0,0.1-0.2,0.4-0.3,0.5
		c-1.5,1.6-3.1,3.2-4.6,4.9C29.2,7.7,29,7.8,29,8c-0.3,1.2-0.6,2.4-0.9,3.7c1.2,0.1,2.4,0.3,3.5,0.4c0.6,0.1,1.2,0.2,1.8,0.4
		c0.3,0.1,0.6,0.4,0.9,0.5c-0.3,0.2-0.6,0.5-0.9,0.5c-1.2,0.2-2.4,0.5-3.6,0.6c-3.5,0.4-7.1,0.4-10.6,0.1c-1.6-0.1-3.2-0.4-4.7-0.6
		c-0.4-0.1-0.8-0.3-1.2-0.4C13.2,13,13.1,12.9,13.1,12.8z M28,13.4c-0.1-0.1-0.1-0.2-0.2-0.2c-0.7,0.2-1.5,0.4-2.2,0
		c0,0-0.2,0.1-0.2,0.1c0,0.1,0.1,0.2,0.1,0.3C26.1,14,27.5,13.9,28,13.4z"/>
	<path class="st0" d="M28,13.4c-0.5,0.5-2,0.6-2.5,0.2c-0.1-0.1-0.1-0.2-0.1-0.3c0-0.1,0.2-0.2,0.2-0.1c0.7,0.4,1.5,0.2,2.2,0
		C27.9,13.3,28,13.3,28,13.4z"/>
</g>
</svg>
