<?xml version="1.0" encoding="utf-8"?>
<!-- Generator: Adobe Illustrator 19.1.0, SVG Export Plug-In . SVG Version: 6.00 Build 0)  -->
<svg version="1.1" id="Layer_1" xmlns="http://www.w3.org/2000/svg" xmlns:xlink="http://www.w3.org/1999/xlink" x="0px" y="0px"
	 viewBox="0 0 45.2 50.5" style="enable-background:new 0 0 45.2 50.5;" xml:space="preserve">
<style type="text/css">
	.st0{fill:#ED6633;}
	.st1{fill:#FFFFFF;}
</style>
<g>
	<path class="st0" d="M6.5,11.3c0,0.5,3.1,34.5,3.1,34.5l14,4L37.4,46c0,0,3.2-33.6,3.3-34.7C29.2,11.3,17.9,11.3,6.5,11.3z
		 M13.8,1.9c0,0.7,0,1.4,0,2c-0.8,0-1.6,0-2.3,0c-0.1-0.7,0.1-1.3,0-2c-0.6,0-1.3,0-1.8,0c0,2.1,0,4.1,0,6.1c0.6,0,1.3,0,1.8,0
		c0-0.7,0-1.3,0-2c0.8,0,1.6,0,2.3,0c0,0.7,0,1.4,0,2c0.7,0,1.3,0,1.8,0c0-2.1,0-4.1,0-6.1C15,1.9,14.4,1.9,13.8,1.9z M34.4,6.2
		c0-1.6,0-3,0-4.3c-0.7,0-1.3,0-1.9,0c0,2.1,0,4.1,0,6.2c1.7,0,3.3,0,4.9,0c0-0.6,0-1.2,0-1.8C36.5,6.2,35.5,6.2,34.4,6.2z"/>
	<path class="st1" d="M13.9,33.2l0.8,6.9l8.9,2.5l8.9-2.5l1.3-13.4H17.8l-0.2-4l16.5,0l0.4-4.6l-22,0l1.1,13.2l15.1,0l-0.6,5.1
		l-4.7,1.4l-4.7-1.3l-0.3-3.4H13.9z"/>
	<path class="st0" d="M24.1,1.9h2.2l1.3,2.2l1.5-2.2H31c0,0,0,4,0,6.1c-0.5,0-1.8,0-1.8,0V4.8L27.6,7l-1.6-2.2l0,3.3
		c0,0-1.2,0-1.9,0C24.1,6,24.1,1.9,24.1,1.9z"/>
	<path class="st0" d="M13.8,1.9c0,0,1.2,0,1.8,0c0,2,0,4,0,6.1c-0.6,0-1.8,0-1.8,0V6h-2.3v2c0,0-1.2,0-1.8,0c0-2,0-6.1,0-6.1h1.8v2
		h2.3"/>
	<path class="st0" d="M22.7,3.6h-1.8c0,0,0,3.7,0,4.4c-0.7,0-1.2,0-2,0c0-1,0-4.4,0-4.4H17V1.9h5.7V3.6z"/>
	<polygon class="st0" points="34.4,6.2 37.5,6.2 37.5,8 32.5,8 32.5,1.9 34.4,1.9 	"/>
</g>
</svg>
