<?xml version="1.0" encoding="utf-8"?>
<!-- Generator: Adobe Illustrator 19.1.0, SVG Export Plug-In . SVG Version: 6.00 Build 0)  -->
<svg version="1.1" id="Layer_1" xmlns="http://www.w3.org/2000/svg" xmlns:xlink="http://www.w3.org/1999/xlink" x="0px" y="0px"
	 viewBox="0 0 45.2 50.5" style="enable-background:new 0 0 45.2 50.5;" xml:space="preserve">
<style type="text/css">
	.st0{fill:url(#SVGID_1_);}
</style>
<linearGradient id="SVGID_1_" gradientUnits="userSpaceOnUse" x1="-572.3428" y1="411.5763" x2="-572.3428" y2="410.5135" gradientTransform="matrix(39.6201 0 0 -35.5033 22698.9453 14620.9785)">
	<stop  offset="0" style="stop-color:#F68A38"/>
	<stop  offset="1" style="stop-color:#EE2D2B"/>
</linearGradient>
<path class="st0" d="M33.4,43.8c-5,2.9-11.8,3.2-18.6,0.2C9.2,41.6,4.6,37.5,1.6,32.8c1.4,1.2,3.1,2.1,4.8,3
	c7.1,3.3,14.2,3.1,19.2,0c0,0,0,0,0,0C18.5,30.3,12.5,23.2,8,17.4c-0.9-0.9-1.7-2.1-2.4-3.2c5.4,5,14.1,11.2,17.1,13
	c-6.5-6.9-12.3-15.4-12.1-15.1C21,22.5,30.6,28.4,30.6,28.4c0.3,0.2,0.6,0.3,0.8,0.5c0.2-0.5,0.4-1.1,0.5-1.6
	c1.7-6-0.2-12.9-4.4-18.6c9.6,5.8,15.2,16.7,12.9,25.8c-0.1,0.2-0.1,0.5-0.2,0.7c0,0,0.1,0.1,0.1,0.1c4.7,5.9,3.4,12.2,2.8,11
	C40.6,41.2,35.8,42.8,33.4,43.8L33.4,43.8z"/>
</svg>
