<?xml version="1.0" encoding="utf-8"?>
<!-- Generator: Adobe Illustrator 19.1.0, SVG Export Plug-In . SVG Version: 6.00 Build 0)  -->
<svg version="1.1" id="Layer_1" xmlns="http://www.w3.org/2000/svg" xmlns:xlink="http://www.w3.org/1999/xlink" x="0px" y="0px"
	 viewBox="0 0 45.2 50.5" style="enable-background:new 0 0 45.2 50.5;" xml:space="preserve">
<style type="text/css">
	.st0{fill:#464444;}
	.st1{fill:#FFFFFF;}
</style>
<g>
	<path class="st0" d="M24.1,9.8c-11,0-20,9-20,19.9c0,11,8.9,20,19.8,20.1C35,49.9,44,40.9,44.1,30C44.2,19.1,35.4,9.9,24.1,9.8z"/>
	<path class="st0" d="M24.1,9.8c11.3,0.1,20.1,9.3,20,20.2C44,40.9,35,49.9,23.9,49.8C13,49.7,4.1,40.7,4.1,29.7
		C4.1,18.8,13.1,9.8,24.1,9.8z M43.1,29.8c0-10.4-8.3-18.9-18.8-19.1C13.8,10.6,5.2,19.1,5,29.5c-0.2,10.7,8.5,19.3,18.9,19.4
		C34.5,49,43.1,40.3,43.1,29.8z"/>
	<path class="st1" d="M43.1,29.8c0,10.5-8.7,19.1-19.3,19C13.5,48.8,4.9,40.2,5,29.5c0.1-10.4,8.7-18.9,19.4-18.8
		C34.8,10.9,43.2,19.5,43.1,29.8z M35.5,17.1c-4.2-3.7-9.1-5.1-14.6-4.1c-4.8,0.8-8.5,3.4-11.3,7.4c0.6,0,1,0,1.4,0
		c1.4-0.1,2.8-0.1,4.2-0.2c0.2,0,0.5,0.1,0.7,0.3c0.3,0.4,0,1-0.5,1.1c-0.6,0.1-1.3,0.1-1.9,0.2c2.1,6.2,4.1,12.3,6.2,18.5
		c0.1-0.1,0.1-0.2,0.1-0.3c1.2-3.6,2.4-7.2,3.6-10.8c0-0.1,0-0.3,0-0.4c-0.8-2.3-1.7-4.6-2.5-6.9c-0.1-0.2-0.2-0.3-0.4-0.3
		c-0.5,0-1-0.1-1.5-0.1c-0.4,0-0.7-0.3-0.6-0.7c0-0.4,0.3-0.7,0.7-0.7c0.3,0,0.7,0,1,0.1c1.3,0,2.6,0.1,4,0.1c1.3,0,2.7-0.1,4-0.2
		c0.5,0,0.8,0.2,0.8,0.7c0,0.4-0.3,0.7-0.7,0.7c-0.6,0.1-1.2,0.1-1.9,0.2c2.1,6.1,4.1,12.2,6.2,18.4c0.1-0.2,0.1-0.2,0.1-0.3
		c0.8-2.7,1.6-5.4,2.4-8.1c0.5-1.5,0.7-3.1,0.3-4.7c-0.3-1.3-1-2.4-1.6-3.6c-0.4-0.8-0.9-1.5-1.1-2.4C32.1,19.1,33.5,17.1,35.5,17.1
		z M24.4,31.4C24.4,31.4,24.4,31.4,24.4,31.4c-1.8,4.9-3.5,9.9-5.2,14.8c3.6,1,7,0.9,10.5-0.3C28,41.1,26.2,36.3,24.4,31.4z
		 M8.4,22.9c-3.7,8-0.3,18.4,8.1,22.3C13.9,37.7,11.2,30.3,8.4,22.9z M32.7,44.5c4.1-2.5,6.8-6,8-10.6c1-4.2,0.5-8.3-1.5-12.1
		c0,0.1,0,0.2,0,0.3c0.2,2.1-0.1,4.1-0.8,6.1c-1.6,4.7-3.2,9.3-4.9,14C33.3,43,33,43.7,32.7,44.5z"/>
	<path class="st0" d="M35.5,17.1c-2,0-3.5,2-2.8,4c0.3,0.8,0.7,1.6,1.1,2.4c0.7,1.1,1.3,2.3,1.6,3.6c0.4,1.6,0.2,3.2-0.3,4.7
		c-0.8,2.7-1.6,5.4-2.4,8.1c0,0,0,0.1-0.1,0.3c-2.1-6.2-4.1-12.3-6.2-18.4c0.7-0.1,1.3-0.1,1.9-0.2c0.5,0,0.8-0.3,0.7-0.7
		c0-0.4-0.3-0.7-0.8-0.7c-1.3,0.1-2.7,0.2-4,0.2c-1.3,0-2.6-0.1-4-0.1c-0.3,0-0.7,0-1-0.1c-0.4,0-0.7,0.3-0.7,0.7
		c0,0.4,0.2,0.7,0.6,0.7c0.5,0.1,1,0.1,1.5,0.1c0.2,0,0.3,0.1,0.4,0.3c0.8,2.3,1.7,4.6,2.5,6.9c0,0.1,0,0.3,0,0.4
		c-1.2,3.6-2.4,7.2-3.6,10.8c0,0.1,0,0.1-0.1,0.3c-2.1-6.2-4.1-12.3-6.2-18.5c0.7-0.1,1.3-0.1,1.9-0.2c0.6-0.1,0.9-0.6,0.5-1.1
		c-0.1-0.2-0.4-0.3-0.7-0.3c-1.4,0-2.8,0.1-4.2,0.2c-0.4,0-0.9,0-1.4,0c2.8-4.1,6.5-6.6,11.3-7.4C26.5,12,31.3,13.4,35.5,17.1z"/>
	<path class="st0" d="M24.4,31.4c1.8,4.8,3.5,9.7,5.3,14.6c-3.5,1.2-6.9,1.3-10.5,0.3C20.9,41.3,22.6,36.3,24.4,31.4
		C24.4,31.4,24.4,31.4,24.4,31.4z"/>
	<path class="st0" d="M8.4,22.9c2.7,7.5,5.4,14.9,8.1,22.3C8.1,41.2,4.7,30.9,8.4,22.9z"/>
	<path class="st0" d="M32.7,44.5c0.3-0.8,0.5-1.5,0.8-2.3c1.6-4.7,3.2-9.3,4.9-14c0.7-2,1-4,0.8-6.1c0-0.1,0-0.2,0-0.3
		c2,3.8,2.6,7.9,1.5,12.1C39.6,38.5,36.9,42,32.7,44.5z"/>
</g>
</svg>
