<?xml version="1.0" encoding="utf-8"?>
<!-- Generator: Adobe Illustrator 19.1.0, SVG Export Plug-In . SVG Version: 6.00 Build 0)  -->
<svg version="1.1" id="Layer_1" xmlns="http://www.w3.org/2000/svg" xmlns:xlink="http://www.w3.org/1999/xlink" x="0px" y="0px"
	 viewBox="-353 140.3 516.8 513.7" style="enable-background:new -353 140.3 516.8 513.7;" xml:space="preserve">
<style type="text/css">
	.st0{fill:#FFFFFF;}
	.st1{fill:#1E1E1E;}
</style>
<g>
	<path class="st0" d="M-93.8,143.6c-139.9,0-253.4,113.5-253.4,253.4s113.5,253.4,253.4,253.4S159.6,536.9,159.6,397
		S46.2,143.6-93.8,143.6z"/>
</g>
<g>
	<path class="st1" d="M-159.3,511.9h-6.9v8.2h6.9c2.6,0,4.5-1.6,4.5-4.1C-154.9,513.5-156.8,511.9-159.3,511.9z"/>
	<path class="st1" d="M-104.3,511.9h-6.8v8.2h6.8c2.6,0,4.6-1.6,4.6-4.1C-99.7,513.5-101.7,511.9-104.3,511.9z"/>
	<path class="st1" d="M-32.1,467.2c-5.6,0-9.2,4.3-9.2,10s3.6,10,9.2,10s9.3-4.3,9.3-10C-22.8,471.5-26.5,467.2-32.1,467.2z"/>
	<polygon class="st1" points="-138.3,481.6 -128.8,481.6 -133.6,468.4 	"/>
	<path class="st1" d="M-101.6,467.7h-6.8v8.2h6.8c2.6,0,4.6-1.6,4.6-4.1S-99,467.7-101.6,467.7z"/>
	<polygon class="st1" points="-27.4,360.6 -27.4,282.5 -78,360.6 	"/>
	<path class="st1" d="M-93.8,143.6c-139.9,0-253.4,113.5-253.4,253.4s113.5,253.4,253.4,253.4S159.6,536.9,159.6,397
		S46.2,143.6-93.8,143.6z M-177.3,247.2h34.8v187.2h-39.9V298.5l-31.2,31.7l-22.7-23.9L-177.3,247.2z M-208.3,511.9h-15.1v6.4h14.7
		v5.7h-14.7v6.9h15.1v5.7h-21.5v-30.5h21.5V511.9L-208.3,511.9z M-183.3,536.7l-7.6-11.1l-7.7,11.1h-7.7l11-15.6l-10.4-14.8h7.7
		l7,10.4l6.9-10.4h7.8l-10.4,14.8l11,15.7L-183.3,536.7L-183.3,536.7z M-187.2,480v12.5h-6.5V480l-11.7-18h7.4l7.6,12.2l7.5-12.2
		h7.4L-187.2,480z M-172.8,462h21.5v5.7h-15.1v6.4h14.7v5.7h-14.7v6.9h15.1v5.7h-21.5V462z M-158.5,525.8h-7.8v10.8h-6.5v-30.5h14.2
		c6.6,0,10.2,4.5,10.2,9.8C-148.2,521.3-151.9,525.8-158.5,525.8z M-122.7,511.9h-15.1v6.4h14.8v5.7h-14.7v6.9h15.1v5.7h-21.5v-30.5
		h21.5L-122.7,511.9L-122.7,511.9L-122.7,511.9z M-125.2,492.4l-1.9-5.2h-13.1l-1.9,5.2h-7.4l11.8-30.5h8.1l11.7,30.5H-125.2z
		 M-100.4,536.7l-6-10.8h-4.7v10.8h-6.5v-30.5h14.2c6.3,0,10.2,4.2,10.2,9.8c0,5.4-3.4,8.3-6.7,9l6.8,11.6h-7.3V536.7z M-97.7,492.4
		l-6-10.8h-4.7v10.8h-6.5v-30.5h14.2c6.3,0,10.2,4.2,10.2,9.8c0,5.4-3.4,8.3-6.7,9l6.8,11.6L-97.7,492.4L-97.7,492.4z M-81.8,536.7
		h-6.5v-30.5h6.5V536.7z M-86.7,470.8c0-5.1,4.4-9.3,11.6-9.3c4.8,0,8.9,1.5,11.9,4.2l-3.6,4.7c-2.5-2.3-5.8-3.3-8.9-3.3
		c-2.8,0-4.3,1.2-4.3,3.1c0,4.8,17.5,1.6,17.5,13c0,5.6-4,9.8-12.2,9.8c-5.8,0-10-2-12.9-4.8l3.5-4.9c2.1,2.2,5.5,4.1,9.7,4.1
		c3.6,0,5.3-1.6,5.3-3.4C-69.1,478.5-86.7,482.2-86.7,470.8z M-54.2,511.9h-15.1v6.4h14.7v5.7h-14.7v6.9h15.1v5.7h-21.5v-30.5h21.5
		C-54.2,506.1-54.2,511.9-54.2,511.9z M-21.9,536.7h-6.3l-14.5-19.9v19.9h-6.5v-30.5h6.7l14.1,19.1v-19.1h6.5V536.7L-21.9,536.7z
		 M-32.1,493c-9.2,0-15.9-6.6-15.9-15.8c0-9.2,6.7-15.8,15.9-15.8s15.9,6.6,15.9,15.8C-16.1,486.4-22.9,493-32.1,493z M-1.1,531.5
		c3.2,0,5.9-1.9,7.2-4.4l5.6,2.7c-2.2,3.8-6,7.5-12.7,7.5c-9.1,0-16.2-6.4-16.2-15.8c0-9.4,7.1-15.8,16.2-15.8
		c6.7,0,10.6,3.7,12.7,7.4l-5.6,2.7c-1.3-2.5-4-4.4-7.2-4.4c-5.5,0-9.5,4.2-9.5,10C-10.7,527.2-6.7,531.5-1.1,531.5z M9.6,474.1v5.7
		H-5.1v12.6h-6.5v-30.5H10v5.7H-5.1v6.4L9.6,474.1L9.6,474.1z M12.4,434.4h-39.9v-38.7H-117v-31.4l74.4-117h55v113.3h24.1v35.1H12.4
		V434.4z M37,511.9H22v6.4h14.7v5.7H22v6.9h15v5.7H15.5v-30.5H37V511.9z"/>
</g>
</svg>
