<?xml version="1.0" encoding="utf-8"?>
<!-- Generator: Adobe Illustrator 19.1.0, SVG Export Plug-In . SVG Version: 6.00 Build 0)  -->
<svg version="1.1" id="Layer_1" xmlns="http://www.w3.org/2000/svg" xmlns:xlink="http://www.w3.org/1999/xlink" x="0px" y="0px"
	 viewBox="0 0 516.8 513.7" style="enable-background:new 0 0 516.8 513.7;" xml:space="preserve">
<style type="text/css">
	.st0{fill:#1E1E1E;}
</style>
<g>
	<path class="st0" d="M191.7,369.3h-6.9v8.2h6.9c2.6,0,4.5-1.6,4.5-4.1C196.1,370.9,194.2,369.3,191.7,369.3z"/>
	<path class="st0" d="M246.7,369.3h-6.8v8.2h6.8c2.6,0,4.6-1.6,4.6-4.1S249.3,369.3,246.7,369.3z"/>
	<path class="st0" d="M318.9,324.6c-5.6,0-9.2,4.3-9.2,10c0,5.7,3.6,10,9.2,10s9.3-4.3,9.3-10C328.2,328.9,324.5,324.6,318.9,324.6z
		"/>
	<polygon class="st0" points="212.7,339 222.2,339 217.4,325.8 	"/>
	<path class="st0" d="M249.4,325.1h-6.8v8.2h6.8c2.6,0,4.6-1.6,4.6-4.1S252,325.1,249.4,325.1z"/>
	<polygon class="st0" points="323.6,218 323.6,139.9 273,218 	"/>
	<path class="st0" d="M257.2,1C117.3,1,3.8,114.5,3.8,254.4s113.5,253.4,253.4,253.4s253.4-113.5,253.4-253.4S397.2,1,257.2,1z
		 M173.7,104.6h34.8v187.2h-39.9V155.9l-31.2,31.7l-22.7-23.9L173.7,104.6z M142.7,369.3h-15.1v6.4h14.7v5.7h-14.7v6.9h15.1v5.7
		h-21.5v-30.5h21.5V369.3z M167.7,394.1l-7.6-11.1l-7.7,11.1h-7.7l11-15.6l-10.4-14.8h7.7l7,10.4l6.9-10.4h7.8l-10.4,14.8l11,15.7
		H167.7z M163.8,337.4v12.5h-6.5v-12.5l-11.7-18h7.4l7.6,12.2l7.5-12.2h7.4L163.8,337.4z M178.2,319.4h21.5v5.7h-15.1v6.4h14.7v5.7
		h-14.7v6.9h15.1v5.7h-21.5V319.4z M192.5,383.2h-7.8v10.8h-6.5v-30.5h14.2c6.6,0,10.2,4.5,10.2,9.8
		C202.8,378.7,199.1,383.2,192.5,383.2z M228.3,369.3h-15.1v6.4H228v5.7h-14.7v6.9h15.1v5.7h-21.5v-30.5h21.5V369.3z M225.8,349.8
		l-1.9-5.2h-13.1l-1.9,5.2h-7.4l11.8-30.5h8.1l11.7,30.5H225.8z M250.6,394.1l-6-10.8h-4.7v10.8h-6.5v-30.5h14.2
		c6.3,0,10.2,4.2,10.2,9.8c0,5.4-3.4,8.3-6.7,9l6.8,11.6H250.6z M253.3,349.8l-6-10.8h-4.7v10.8h-6.5v-30.5h14.2
		c6.3,0,10.2,4.2,10.2,9.8c0,5.4-3.4,8.3-6.7,9l6.8,11.6H253.3z M269.2,394.1h-6.5v-30.5h6.5V394.1z M264.3,328.2
		c0-5.1,4.4-9.3,11.6-9.3c4.8,0,8.9,1.5,11.9,4.2l-3.6,4.7c-2.5-2.3-5.8-3.3-8.9-3.3c-2.8,0-4.3,1.2-4.3,3.1c0,4.8,17.5,1.6,17.5,13
		c0,5.6-4,9.8-12.2,9.8c-5.8,0-10-2-12.9-4.8l3.5-4.9c2.1,2.2,5.5,4.1,9.7,4.1c3.6,0,5.3-1.6,5.3-3.4
		C281.9,335.9,264.3,339.6,264.3,328.2z M296.8,369.3h-15.1v6.4h14.7v5.7h-14.7v6.9h15.1v5.7h-21.5v-30.5h21.5V369.3z M329.1,394.1
		h-6.3l-14.5-19.9v19.9h-6.5v-30.5h6.7l14.1,19.1v-19.1h6.5V394.1z M318.9,350.4c-9.2,0-15.9-6.6-15.9-15.8
		c0-9.2,6.7-15.8,15.9-15.8c9.2,0,15.9,6.6,15.9,15.8C334.9,343.8,328.1,350.4,318.9,350.4z M349.9,388.9c3.2,0,5.9-1.9,7.2-4.4
		l5.6,2.7c-2.2,3.8-6,7.5-12.7,7.5c-9.1,0-16.2-6.4-16.2-15.8c0-9.4,7.1-15.8,16.2-15.8c6.7,0,10.6,3.7,12.7,7.4l-5.6,2.7
		c-1.3-2.5-4-4.4-7.2-4.4c-5.5,0-9.5,4.2-9.5,10C340.3,384.6,344.3,388.9,349.9,388.9z M360.6,331.5v5.7h-14.7v12.6h-6.5v-30.5H361
		v5.7h-15.1v6.4H360.6z M363.4,291.8h-39.9v-38.7H234v-31.4l74.4-117h55V218h24.1v35.1h-24.1V291.8z M388,369.3H373v6.4h14.7v5.7
		H373v6.9H388v5.7h-21.5v-30.5H388V369.3z"/>
</g>
</svg>
