<?xml version="1.0" encoding="utf-8"?>
<!-- Generator: Adobe Illustrator 19.1.0, SVG Export Plug-In . SVG Version: 6.00 Build 0)  -->
<svg version="1.1" id="Layer_1" xmlns="http://www.w3.org/2000/svg" xmlns:xlink="http://www.w3.org/1999/xlink" x="0px" y="0px"
	 viewBox="-3341 3344.3 516.8 513.7" style="enable-background:new -3341 3344.3 516.8 513.7;" xml:space="preserve">
<style type="text/css">
	.st0{fill:#1E1E1E;}
	.st1{fill:#FFFFFF;}
</style>
<g id="Layer_1_1_">
	<g>
		<path class="st0" d="M-3082.6,3345.5c-141,0-255.3,114.4-255.3,255.3s114.4,255.3,255.3,255.3c141,0,255.3-114.5,255.3-255.4
			C-2827.3,3459.7-2941.5,3345.5-3082.6,3345.5z"/>
	</g>
</g>
<g id="TEXT">
	<g>
		<path class="st1" d="M-3130.9,3638h-40.7v-130.1h-50.4v-30.7c28.4,0.6,54.5-9.2,58.8-39.8h32.4V3638H-3130.9z"/>
		<path class="st1" d="M-3013.7,3591.6h-84.8v-37.3l87.1-116.9h36.4v120.7h26.7v33.5h-26.7v46.4h-38.7V3591.6z M-3013.7,3488.4h-0.9
			l-51.9,69.6h52.7L-3013.7,3488.4L-3013.7,3488.4z"/>
	</g>
	<g>
		<path class="st1" d="M-3181.3,3684.2l-11.2-18.6h7.5l7.1,12l7.1-12h7.4l-11.3,18.7v11.7h-6.7L-3181.3,3684.2L-3181.3,3684.2z"/>
		<path class="st1" d="M-3160.8,3665.6h22.7v5.6h-16v6.5h14.7v5.2h-14.7v7.4h16.4v5.6h-23.1L-3160.8,3665.6L-3160.8,3665.6z"/>
		<path class="st1" d="M-3124.9,3665.6h6.9l11.4,30.4h-6.9l-2.3-6.8h-11.4l-2.4,6.8h-6.8L-3124.9,3665.6z M-3125.6,3684.3h7.9
			l-3.8-11.1h-0.1L-3125.6,3684.3z"/>
		<path class="st1" d="M-3104.1,3665.6h16.4c5.4,0,8.9,3.8,8.9,8.4c0,3.6-1.4,6.3-4.8,7.6v0.1c3.3,0.9,4.2,4,4.4,7.1
			c0.1,1.9,0.1,5.5,1.3,7.2h-6.7c-0.8-1.9-0.7-4.9-1.1-7.3c-0.5-3.2-1.7-4.6-5.1-4.6h-6.7v11.9h-6.7v-30.4H-3104.1z M-3097.4,3679.4
			h7.3c3,0,4.6-1.3,4.6-4.3c0-2.9-1.6-4.2-4.6-4.2h-7.3V3679.4z"/>
		<path class="st1" d="M-3068.8,3685.9c0,4,3.1,5.6,6.7,5.6c2.3,0,5.9-0.7,5.9-3.8c0-3.3-4.6-3.8-9-5c-4.5-1.2-9.1-2.9-9.1-8.6
			c0-6.2,5.9-9.2,11.4-9.2c6.3,0,12.2,2.8,12.2,9.8h-6.5c-0.2-3.7-2.8-4.6-6-4.6c-2.1,0-4.6,0.9-4.6,3.4c0,2.3,1.4,2.6,9.1,4.6
			c2.2,0.6,9,2,9,8.9c0,5.6-4.4,9.7-12.6,9.7c-6.7,0-13-3.3-12.9-10.8L-3068.8,3685.9L-3068.8,3685.9z"/>
		<path class="st1" d="M-3020.3,3664.9c9.4,0,14.9,7,14.9,16c0,8.8-5.5,15.8-14.9,15.8s-14.9-7-14.9-15.8
			C-3035.2,3671.9-3029.7,3664.9-3020.3,3664.9z M-3020.3,3691.1c6,0,8.3-5.1,8.3-10.2c0-5.3-2.3-10.4-8.3-10.4s-8.3,5.1-8.3,10.4
			C-3028.6,3686-3026.3,3691.1-3020.3,3691.1z"/>
		<path class="st1" d="M-3000.8,3665.6h21.4v5.6h-14.7v7h12.7v5.2h-12.7v12.6h-6.7V3665.6z"/>
		<path class="st1" d="M-3219.1,3709.6h22.7v5.6h-16v6.5h14.7v5.2h-14.7v7.4h16.4v5.6h-23.1L-3219.1,3709.6L-3219.1,3709.6z"/>
		<path class="st1" d="M-3184,3724.1l-9.8-14.5h7.7l6,9.7l6.2-9.7h7.3l-9.7,14.5l10.6,15.9h-8l-6.6-10.5l-6.8,10.5h-7.5
			L-3184,3724.1z"/>
		<path class="st1" d="M-3163.1,3709.6h13.7c7.6,0,10.5,4.8,10.5,9.7s-2.9,9.7-10.5,9.7h-7v10.9h-6.7V3709.6z M-3156.4,3723.9h5.2
			c3.1,0,5.9-0.7,5.9-4.6c0-3.9-2.8-4.6-5.9-4.6h-5.2V3723.9z"/>
		<path class="st1" d="M-3134.7,3709.6h22.7v5.6h-16v6.5h14.7v5.2h-14.7v7.4h16.4v5.6h-23.1L-3134.7,3709.6L-3134.7,3709.6z"/>
		<path class="st1" d="M-3107.2,3709.6h16.4c5.4,0,8.9,3.8,8.9,8.4c0,3.6-1.4,6.3-4.8,7.6v0.1c3.3,0.9,4.2,4,4.4,7.1
			c0.1,1.9,0.1,5.5,1.3,7.2h-6.7c-0.8-1.9-0.7-4.9-1.1-7.3c-0.5-3.2-1.7-4.6-5.1-4.6h-6.7v11.9h-6.7v-30.4H-3107.2z M-3100.5,3723.4
			h7.3c3,0,4.6-1.3,4.6-4.3c0-2.9-1.6-4.2-4.6-4.2h-7.3V3723.4z"/>
		<path class="st1" d="M-3076.4,3709.6h6.7v30.4h-6.7V3709.6z"/>
		<path class="st1" d="M-3063.9,3709.6h22.7v5.6h-16v6.5h14.7v5.2h-14.7v7.4h16.4v5.6h-23.1L-3063.9,3709.6L-3063.9,3709.6z"/>
		<path class="st1" d="M-3036.3,3709.6h6.6l12.7,20.4h0.1v-20.4h6.3v30.4h-6.7l-12.6-20.3h-0.1v20.3h-6.3V3709.6z"/>
		<path class="st1" d="M-2984.5,3719.8c-0.4-3-3.3-5.3-6.6-5.3c-6,0-8.3,5.1-8.3,10.4c0,5.1,2.3,10.2,8.3,10.2
			c4.1,0,6.4-2.8,6.9-6.8h6.5c-0.7,7.6-5.9,12.4-13.4,12.4c-9.4,0-14.9-7-14.9-15.8c0-9,5.5-16,14.9-16c6.7,0,12.3,3.9,13.1,10.9
			L-2984.5,3719.8L-2984.5,3719.8z"/>
		<path class="st1" d="M-2973.3,3709.6h22.7v5.6h-16v6.5h14.7v5.2h-14.7v7.4h16.4v5.6h-23.1L-2973.3,3709.6L-2973.3,3709.6z"/>
	</g>
</g>
</svg>
