<?xml version="1.0" encoding="utf-8"?>
<!-- Generator: Adobe Illustrator 19.1.0, SVG Export Plug-In . SVG Version: 6.00 Build 0)  -->
<svg version="1.1" id="Layer_1" xmlns="http://www.w3.org/2000/svg" xmlns:xlink="http://www.w3.org/1999/xlink" x="0px" y="0px"
	 viewBox="-353 140.3 516.8 513.7" style="enable-background:new -353 140.3 516.8 513.7;" xml:space="preserve">
<style type="text/css">
	.st0{fill:#1E1E1E;}
</style>
<g>
	<path class="st0" d="M-161.3,509.6h-6.9v8.2h6.9c2.6,0,4.5-1.6,4.5-4.1C-156.9,511.2-158.8,509.6-161.3,509.6z"/>
	<path class="st0" d="M-106.3,509.6h-6.8v8.2h6.8c2.6,0,4.6-1.6,4.6-4.1C-101.7,511.2-103.7,509.6-106.3,509.6z"/>
	<path class="st0" d="M-34.1,464.9c-5.6,0-9.2,4.3-9.2,10s3.6,10,9.2,10s9.3-4.3,9.3-10C-24.8,469.2-28.5,464.9-34.1,464.9z"/>
	<polygon class="st0" points="-140.3,479.3 -130.8,479.3 -135.6,466.1 	"/>
	<path class="st0" d="M-103.6,465.4h-6.8v8.2h6.8c2.6,0,4.6-1.6,4.6-4.1S-101,465.4-103.6,465.4z"/>
	<polygon class="st0" points="-29.4,358.3 -29.4,280.2 -80,358.3 	"/>
	<path class="st0" d="M-95.8,141.3c-139.9,0-253.4,113.5-253.4,253.4s113.5,253.4,253.4,253.4s253.4-113.5,253.4-253.4
		S44.2,141.3-95.8,141.3z M-179.3,244.9h34.8v187.2h-39.9V296.2l-31.2,31.7l-22.7-23.9L-179.3,244.9z M-210.3,509.6h-15.1v6.4h14.7
		v5.7h-14.7v6.9h15.1v5.7h-21.5v-30.5h21.5L-210.3,509.6L-210.3,509.6z M-185.3,534.4l-7.6-11.1l-7.7,11.1h-7.7l11-15.6l-10.4-14.8
		h7.7l7,10.4l6.9-10.4h7.8l-10.4,14.8l11,15.7L-185.3,534.4L-185.3,534.4z M-189.2,477.7v12.5h-6.5v-12.5l-11.7-18h7.4l7.6,12.2
		l7.5-12.2h7.4L-189.2,477.7z M-174.8,459.7h21.5v5.7h-15.1v6.4h14.7v5.7h-14.7v6.9h15.1v5.7h-21.5V459.7z M-160.5,523.5h-7.8v10.8
		h-6.5v-30.5h14.2c6.6,0,10.2,4.5,10.2,9.8C-150.2,519-153.9,523.5-160.5,523.5z M-124.7,509.6h-15.1v6.4h14.8v5.7h-14.7v6.9h15.1
		v5.7h-21.5v-30.5h21.5v5.8H-124.7z M-127.2,490.1l-1.9-5.2h-13.1l-1.9,5.2h-7.4l11.8-30.5h8.1l11.7,30.5H-127.2z M-102.4,534.4
		l-6-10.8h-4.7v10.8h-6.5v-30.5h14.2c6.3,0,10.2,4.2,10.2,9.8c0,5.4-3.4,8.3-6.7,9l6.8,11.6h-7.3V534.4z M-99.7,490.1l-6-10.8h-4.7
		v10.8h-6.5v-30.5h14.2c6.3,0,10.2,4.2,10.2,9.8c0,5.4-3.4,8.3-6.7,9l6.8,11.6h-7.3V490.1z M-83.8,534.4h-6.5v-30.5h6.5V534.4z
		 M-88.7,468.5c0-5.1,4.4-9.3,11.6-9.3c4.8,0,8.9,1.5,11.9,4.2l-3.6,4.7c-2.5-2.3-5.8-3.3-8.9-3.3c-2.8,0-4.3,1.2-4.3,3.1
		c0,4.8,17.5,1.6,17.5,13c0,5.6-4,9.8-12.2,9.8c-5.8,0-10-2-12.9-4.8l3.5-4.9c2.1,2.2,5.5,4.1,9.7,4.1c3.6,0,5.3-1.6,5.3-3.4
		C-71.1,476.2-88.7,479.9-88.7,468.5z M-56.2,509.6h-15.1v6.4h14.7v5.7h-14.7v6.9h15.1v5.7h-21.5v-30.5h21.5V509.6z M-23.9,534.4
		h-6.3l-14.5-19.9v19.9h-6.5v-30.5h6.7l14.1,19.1v-19.1h6.5L-23.9,534.4L-23.9,534.4z M-34.1,490.7c-9.2,0-15.9-6.6-15.9-15.8
		c0-9.2,6.7-15.8,15.9-15.8c9.2,0,15.9,6.6,15.9,15.8C-18.1,484.1-24.9,490.7-34.1,490.7z M-3.1,529.2c3.2,0,5.9-1.9,7.2-4.4
		l5.6,2.7c-2.2,3.8-6,7.5-12.7,7.5c-9.1,0-16.2-6.4-16.2-15.8c0-9.4,7.1-15.8,16.2-15.8c6.7,0,10.6,3.7,12.7,7.4l-5.6,2.7
		c-1.3-2.5-4-4.4-7.2-4.4c-5.5,0-9.5,4.2-9.5,10C-12.7,524.9-8.7,529.2-3.1,529.2z M7.6,471.8v5.7H-7.1v12.6h-6.5v-30.5H8v5.7H-7.1
		v6.4L7.6,471.8L7.6,471.8z M10.4,432.1h-39.9v-38.7H-119V362l74.4-117h55v113.3h24.1v35.1H10.4V432.1z M35,509.6H20v6.4h14.7v5.7
		H20v6.9h15v5.7H13.5v-30.5H35V509.6z"/>
</g>
</svg>
