<?xml version="1.0" encoding="utf-8"?>
<!-- Generator: Adobe Illustrator 19.1.0, SVG Export Plug-In . SVG Version: 6.00 Build 0)  -->
<svg version="1.1" id="Layer_1" xmlns="http://www.w3.org/2000/svg" xmlns:xlink="http://www.w3.org/1999/xlink" x="0px" y="0px"
	 viewBox="-150.7 45.3 544.2 523.7" style="enable-background:new -150.7 45.3 544.2 523.7;" xml:space="preserve">
<style type="text/css">
	.thu0{fill:#1E1E1E;stroke:#1E1E1E;stroke-width:8;stroke-miterlimit:10;}
	.thu1{fill:#FFFFFF;}
</style>
<g id="Layer_1_1_">
	<g>
		<path class="thu0" d="M121.4,51.8c-141,0-255.3,114.4-255.3,255.3s114.4,255.3,255.3,255.3c141,0,255.3-114.5,255.3-255.4
			C376.7,166,262.5,51.8,121.4,51.8z"/>
	</g>
</g>
<g id="TEXT">
	<g>
		<path class="thu1" d="M73.1,344.3H32.4V214.2H-18v-30.7c28.4,0.6,54.5-9.2,58.8-39.8h32.4v200.6H73.1z"/>
		<path class="thu1" d="M190.3,297.9h-84.8v-37.3l87.1-116.9H229v120.7h26.7v33.5H229v46.4h-38.7V297.9z M190.3,194.7h-0.9
			l-51.9,69.6h52.7L190.3,194.7L190.3,194.7z"/>
	</g>
	<g>
		<path class="thu1" d="M22.7,390.5l-11.2-18.6H19l7.1,12l7.1-12h7.4l-11.3,18.7v11.7h-6.7L22.7,390.5L22.7,390.5z"/>
		<path class="thu1" d="M43.2,371.9h22.7v5.6h-16v6.5h14.7v5.2H49.9v7.4h16.4v5.6H43.2L43.2,371.9L43.2,371.9z"/>
		<path class="thu1" d="M79.1,371.9H86l11.4,30.4h-6.9l-2.3-6.8H76.8l-2.4,6.8h-6.8L79.1,371.9z M78.4,390.6h7.9l-3.8-11.1h-0.1
			L78.4,390.6z"/>
		<path class="thu1" d="M99.9,371.9h16.4c5.4,0,8.9,3.8,8.9,8.4c0,3.6-1.4,6.3-4.8,7.6v0.1c3.3,0.9,4.2,4,4.4,7.1
			c0.1,1.9,0.1,5.5,1.3,7.2h-6.7c-0.8-1.9-0.7-4.9-1.1-7.3c-0.5-3.2-1.7-4.6-5.1-4.6h-6.7v11.9h-6.7v-30.4H99.9z M106.6,385.7h7.3
			c3,0,4.6-1.3,4.6-4.3c0-2.9-1.6-4.2-4.6-4.2h-7.3V385.7z"/>
		<path class="thu1" d="M135.2,392.2c0,4,3.1,5.6,6.7,5.6c2.3,0,5.9-0.7,5.9-3.8c0-3.3-4.6-3.8-9-5c-4.5-1.2-9.1-2.9-9.1-8.6
			c0-6.2,5.9-9.2,11.4-9.2c6.3,0,12.2,2.8,12.2,9.8h-6.5c-0.2-3.7-2.8-4.6-6-4.6c-2.1,0-4.6,0.9-4.6,3.4c0,2.3,1.4,2.6,9.1,4.6
			c2.2,0.6,9,2,9,8.9c0,5.6-4.4,9.7-12.6,9.7c-6.7,0-13-3.3-12.9-10.8L135.2,392.2L135.2,392.2z"/>
		<path class="thu1" d="M183.7,371.2c9.4,0,14.9,7,14.9,16c0,8.8-5.5,15.8-14.9,15.8s-14.9-7-14.9-15.8
			C168.8,378.2,174.3,371.2,183.7,371.2z M183.7,397.4c6,0,8.3-5.1,8.3-10.2c0-5.3-2.3-10.4-8.3-10.4s-8.3,5.1-8.3,10.4
			C175.4,392.3,177.7,397.4,183.7,397.4z"/>
		<path class="thu1" d="M203.2,371.9h21.4v5.6h-14.7v7h12.7v5.2h-12.7v12.6h-6.7V371.9z"/>
		<path class="thu1" d="M-15.1,415.9H7.6v5.6h-16v6.5H6.3v5.2H-8.4v7.4H8v5.6h-23.1L-15.1,415.9L-15.1,415.9z"/>
		<path class="thu1" d="M20,430.4l-9.8-14.5h7.7l6,9.7l6.2-9.7h7.3l-9.7,14.5l10.6,15.9h-8l-6.6-10.5l-6.8,10.5H9.4L20,430.4z"/>
		<path class="thu1" d="M40.9,415.9h13.7c7.6,0,10.5,4.8,10.5,9.7s-2.9,9.7-10.5,9.7h-7v10.9h-6.7V415.9z M47.6,430.2h5.2
			c3.1,0,5.9-0.7,5.9-4.6c0-3.9-2.8-4.6-5.9-4.6h-5.2V430.2z"/>
		<path class="thu1" d="M69.3,415.9H92v5.6H76v6.5h14.7v5.2H76v7.4h16.4v5.6H69.3L69.3,415.9L69.3,415.9z"/>
		<path class="thu1" d="M96.8,415.9h16.4c5.4,0,8.9,3.8,8.9,8.4c0,3.6-1.4,6.3-4.8,7.6v0.1c3.3,0.9,4.2,4,4.4,7.1
			c0.1,1.9,0.1,5.5,1.3,7.2h-6.7c-0.8-1.9-0.7-4.9-1.1-7.3c-0.5-3.2-1.7-4.6-5.1-4.6h-6.7v11.9h-6.7v-30.4H96.8z M103.5,429.7h7.3
			c3,0,4.6-1.3,4.6-4.3c0-2.9-1.6-4.2-4.6-4.2h-7.3V429.7z"/>
		<path class="thu1" d="M127.6,415.9h6.7v30.4h-6.7V415.9z"/>
		<path class="thu1" d="M140.1,415.9h22.7v5.6h-16v6.5h14.7v5.2h-14.7v7.4h16.4v5.6h-23.1L140.1,415.9L140.1,415.9z"/>
		<path class="thu1" d="M167.7,415.9h6.6l12.7,20.4h0.1v-20.4h6.3v30.4h-6.7L174.1,426H174v20.3h-6.3V415.9z"/>
		<path class="thu1" d="M219.5,426.1c-0.4-3-3.3-5.3-6.6-5.3c-6,0-8.3,5.1-8.3,10.4c0,5.1,2.3,10.2,8.3,10.2c4.1,0,6.4-2.8,6.9-6.8
			h6.5c-0.7,7.6-5.9,12.4-13.4,12.4c-9.4,0-14.9-7-14.9-15.8c0-9,5.5-16,14.9-16c6.7,0,12.3,3.9,13.1,10.9L219.5,426.1L219.5,426.1z
			"/>
		<path class="thu1" d="M230.7,415.9h22.7v5.6h-16v6.5h14.7v5.2h-14.7v7.4h16.4v5.6h-23.1L230.7,415.9L230.7,415.9z"/>
	</g>
</g>
</svg>
