<?xml version="1.0" encoding="utf-8"?>
<!-- Generator: Adobe Illustrator 19.1.0, SVG Export Plug-In . SVG Version: 6.00 Build 0)  -->
<svg version="1.1" id="Layer_2" xmlns="http://www.w3.org/2000/svg" xmlns:xlink="http://www.w3.org/1999/xlink" x="0px" y="0px"
	 viewBox="0 0 166.9 70.2" style="enable-background:new 0 0 166.9 70.2;" xml:space="preserve">
<path d="M66.5,71.7l-7-16l-20.6,7.7V44.9l-27,3.6l17-16L1.4,26.3l25.1-12.6L9.4,1.8l11.9,3.4c17.1,5,39.4,7.7,62.8,7.7
	c19.7,0,33.9-3.9,47.6-7.7c2.2-0.6,4.4-1.2,6.6-1.8l6.5-1.7l-17.4,19.7l36,7l-34.6,13.7l38,25.3L89.2,48.8L66.5,71.7z M61.7,50.5
	l6.2,14.1L88,44.3l57.8,13.9l-25.5-17l29-11.5L119.7,24l13.2-14.9c0,0,0,0,0,0c-14,3.9-28.4,7.9-48.7,7.9C65,17,46.5,15.2,31,11.9
	l3.4,2.3L13.2,24.8l24,5.4L23.8,42.9L43,40.3v17.2L61.7,50.5z"/>
</svg>
