<?xml version="1.0" encoding="utf-8"?>
<!-- Generator: Adobe Illustrator 19.1.0, SVG Export Plug-In . SVG Version: 6.00 Build 0)  -->
<svg version="1.1" id="Layer_2" xmlns="http://www.w3.org/2000/svg" xmlns:xlink="http://www.w3.org/1999/xlink" x="0px" y="0px"
	 viewBox="-312 271.8 166.9 114" style="enable-background:new -312 271.8 166.9 114;" xml:space="preserve">
<style type="text/css">
	.st0{fill:none;stroke:#000000;stroke-width:1.5205;stroke-linecap:round;stroke-miterlimit:10;}
	.st1{fill:none;stroke:#000000;stroke-width:1.9647;stroke-linecap:round;stroke-miterlimit:10;}
	.st2{fill:none;stroke:#000000;stroke-width:1.6681;stroke-linecap:round;stroke-miterlimit:10;}
</style>
<path d="M-273.1,316.7v16.1l4.1-4.3v-16.5l-19.2,2.6l13.4-12.7l-24-5.4l21.2-10.6l-3.4-2.3c15.5,3.3,34,5.1,53.2,5.1
	c20.3,0,34.7-4,48.7-7.9l-13.2,14.9l29.6,5.7l-29,11.5l25.5,17l-29.1-7l5.5,5.5l44.6,10.7l-38-25.3l34.6-13.7l-36-7l17.4-19.7
	l-6.5,1.7c-2.2,0.6-4.4,1.2-6.6,1.8c-13.7,3.8-27.9,7.7-47.6,7.7c-23.4,0-45.7-2.7-62.8-7.7l-11.9-3.4l17.1,11.9l-25.1,12.6
	l27.5,6.2l-17,16L-273.1,316.7z"/>
<line class="st0" x1="-249.6" y1="310.2" x2="-288" y2="349.5"/>
<line class="st1" x1="-160.8" y1="358.9" x2="-210.9" y2="307.8"/>
<line class="st2" x1="-239.5" y1="308.2" x2="-285" y2="380.1"/>
<line class="st2" x1="-244.7" y1="377.6" x2="-224" y2="305.6"/>
<line class="st2" x1="-217.3" y1="318.9" x2="-200.3" y2="367"/>
</svg>
