<?xml version="1.0" encoding="utf-8"?>
<!-- Generator: Adobe Illustrator 19.1.0, SVG Export Plug-In . SVG Version: 6.00 Build 0)  -->
<svg version="1.1" id="Layer_2" xmlns="http://www.w3.org/2000/svg" xmlns:xlink="http://www.w3.org/1999/xlink" x="0px" y="0px"
	 viewBox="-313 543.9 164 139.1" style="enable-background:new -313 543.9 164 139.1;" xml:space="preserve">
<style type="text/css">
	.st0{stroke:#FFFFFF;stroke-miterlimit:10;}
	.st1{fill:none;stroke:#FFFFFF;stroke-linecap:round;stroke-miterlimit:10;}
	.st2{fill:none;stroke:#FFFFFF;stroke-width:0.9434;stroke-linecap:round;stroke-miterlimit:10;}
	.st3{fill:#FFFFFF;}
</style>
<path class="st0" d="M-265.2,592.2c-25.7,4.5-43.3,13.7-43.3,24.4l0.3,29.9c3.1,17.5,36.6,31.3,77.4,31.3s74.3-13.8,77.4-31.3
	c0,0,0.3-29.2,0.3-29.9c0-10.8-18-20.2-44.2-24.5"/>
<path class="st0" d="M-231.2,545.9c-18.8,0-34,15.2-34,33.9v53.9c26.2,5.1,60.2,1.7,67.9,0.2v-54.1
	C-197.3,561.1-212.5,545.9-231.2,545.9z"/>
<path class="st1" d="M-158.4,606.6c3.4,2.9,5.2,6,5.2,9.3c0,14.3-34.8,25.8-77.7,25.8c-33,0-61.2-6.8-72.5-16.5"/>
<path class="st2" d="M-166.1,608c3,2.3,4.7,4.9,4.7,7.5c0,11.5-31.1,20.9-69.4,20.9s-69.4-9.3-69.4-20.9c0-2.7,1.7-5.2,4.7-7.5"/>
<path class="st3" d="M-303.8,625.3l0.4,21c0,0,1.5,8.8,17.3,16.6c0,0,11.2,4.1,17.3,5.3c0,0-32.4-9.8-28.2-38.6L-303.8,625.3z"/>
<path class="st3" d="M-265.2,596.2c0,0-22.3,4.2-30.7,11.5c0,0-0.9,2,0.1,1.1c5-3.9,26.5-10.1,30.6-6.9V596.2z"/>
<path class="st3" d="M-196.7,596.2c0,0,3.9-0.1,15.4,3.7c0,0-8.7-2.2-15.4-1C-196.7,598.9-196.7,596.2-196.7,596.2z"/>
<path class="st3" d="M-225.7,562.7c-7,0-16.3,3-21.3,14.6l-9.1,5c0.8-18.3,12.6-29.3,23.8-29.3L-225.7,562.7z"/>
<path class="st3" d="M-234.7,549.4c0,0-25.5,3.7-26.3,32.2v47.5l1.3-30l0.3-17.8C-259.3,581.2-257.8,554.2-234.7,549.4z"/>
</svg>
