<?xml version="1.0" encoding="utf-8"?>
<!-- Generator: Adobe Illustrator 19.1.0, SVG Export Plug-In . SVG Version: 6.00 Build 0)  -->
<svg version="1.1" id="Layer_2" xmlns="http://www.w3.org/2000/svg" xmlns:xlink="http://www.w3.org/1999/xlink" x="0px" y="0px"
	 viewBox="0 0 158.9 84.3" style="enable-background:new 0 0 158.9 84.3;" xml:space="preserve">
<style type="text/css">
	.st0{fill:#FFFFFF;}
</style>
<path d="M155.8,29.1l0-0.7h-0.1c-1.4-14.8-35.1-26.6-76.4-26.6S4.5,13.7,3.1,28.5H3l0,0.7c0,0.1,0,0.2,0,0.3c0,0.3,0,0.7,0.1,1
	L4,56.9h0.1c2.1,13,34.5,25.2,75.3,25.2s73.2-12.1,75.3-25.2h0.1l0.9-26.5c0-0.3,0.1-0.7,0.1-1C155.9,29.3,155.8,29.2,155.8,29.1z"
	/>
<path class="st0" d="M79.1,47C39,47,7.6,38.6,7.6,27.9c0-2.5,1.7-4.9,5-7.1c0.2-0.1,3.7-2.2,3.8-2c0,0-2.3,2.1-3.3,2.7
	c-3.1,2-4.6,4.2-4.6,6.4c0,10,31.7,18.2,70.6,18.2c20.8,0,40.5-2.4,54-6.6c0.2-0.1,5-1.7,4.9-1.5c-1.4,1.7-4.4,2.3-4.6,2.4
	C119.8,44.6,100,47,79.1,47z"/>
<path class="st0" d="M142.7,32.9c-2.2,2.9,4.6-2.5,4.6-7.1c0-10.9-30.5-19.7-68.1-19.7c-20.8,0-39.4,2.7-51.9,6.9
	c0,0,59.5-16.2,108.3,4.9C135.6,17.9,149.3,24.4,142.7,32.9z"/>
<path class="st0" d="M151.8,20.8C151.6,20.6,151.6,20.6,151.8,20.8c3.3,2.6,3.4,5.7,3.6,8.4c0.9,12.7-34.5,23.4-76.4,23.4
	c-31.3,0-59.8-6-71-14.9c-0.2-0.2-0.5-0.1-0.7,0.1c-0.1,0.2-0.1,0.4,0,0.5l0.4,17.8c0,0,1.5,7.5,17.1,14.2c0,0,11.1,3.5,17.1,4.6
	c0,0-31.3-8.3-27.8-32.4c13.9,6.8,38.1,11,65,11c42.4,0,76.9-10.7,76.9-23.9C155.9,26.7,155.4,23.6,151.8,20.8z"/>
</svg>
