<?xml version="1.0" encoding="utf-8"?>
<!-- Generator: Adobe Illustrator 19.1.0, SVG Export Plug-In . SVG Version: 6.00 Build 0)  -->
<svg version="1.1" xmlns="http://www.w3.org/2000/svg" xmlns:xlink="http://www.w3.org/1999/xlink" x="0px" y="0px"
	 viewBox="0 0 216.5 200.5" style="enable-background:new 0 0 216.5 200.5;" xml:space="preserve">
<style type="text/css">
	.st0{display:none;}
	.st1{display:inline;}
	.st2{fill:#1E1E1E;stroke:#FFFFFF;stroke-miterlimit:10;}
	.st3{fill:none;stroke:#1E1E1E;stroke-width:2;stroke-miterlimit:10;}
	.st4{fill:none;stroke:#FFFFFF;stroke-linecap:round;stroke-miterlimit:10;}
	.st5{fill:none;stroke:#FFFFFF;stroke-width:0.9434;stroke-linecap:round;stroke-miterlimit:10;}
	.st6{fill:#FFFFFF;}
	.st7{fill:none;stroke:#1E1E1E;stroke-width:2;stroke-linecap:round;stroke-miterlimit:10;}
	.st8{fill:#1E1E1E;}
</style>
<g id="Layer_1" class="st0">
	<g id="De1m6R.tif" class="st1">
		
			<image style="overflow:visible;" width="400" height="339" id="Layer_0_1_" xlink:href="324E8C2EDCA6E4E4.png"  transform="matrix(1 0 0 1 16 -135.5)">
		</image>
	</g>
</g>
<g id="Layer_2">
	<path class="st2" d="M74.3,49.2C48.6,53.6,31,62.9,31,73.6l0.3,29.9c3.1,17.5,36.6,31.3,77.4,31.3s74.3-13.8,77.4-31.3
		c0,0,0.3-29.2,0.3-29.9c0-10.8-18-20.2-44.2-24.5"/>
	<path class="st3" d="M170,154.2l8.2-3.7l-33-4.4l16.8-16.5c-14,4.4-32.8,7.9-53.7,7.4c-22.2-0.5-42.8-5.1-58.6-10.7l9.8,8.5
		l-19,12.2l7.8,2"/>
	<polyline class="st3" points="75.2,170.7 74.4,186.5 91,178.9 99.4,195.4 115.3,172.4 151,188.2 144.3,168.7 	"/>
	<path class="st2" d="M108.3,2.9c-18.7,0-33.9,15.2-33.9,33.9v53.9c26.2,5.1,60.2,1.7,67.9,0.2V36.8C142.2,18.1,127,2.9,108.3,2.9z"
		/>
	<path class="st4" d="M181.1,63.6c3.4,2.9,5.2,6,5.2,9.3c0,14.3-34.8,25.8-77.7,25.8c-33,0-61.2-6.8-72.5-16.5"/>
	<path class="st5" d="M173.4,65c3,2.3,4.7,4.9,4.7,7.5c0,11.5-31.1,20.9-69.4,20.9s-69.4-9.3-69.4-20.9c0-2.7,1.7-5.2,4.7-7.5"/>
	<path class="st6" d="M35.8,82.2l0.4,21c0,0,1.5,8.8,17.3,16.6c0,0,11.2,4.1,17.3,5.3c0,0-32.4-9.8-28.2-38.6L35.8,82.2z"/>
	<path class="st6" d="M74.3,53.2c0,0-22.3,4.2-30.7,11.5c0,0-0.9,2,0.1,1.1c5-3.9,26.5-10.1,30.6-6.9V53.2z"/>
	<path class="st6" d="M142.8,53.2c0,0,3.9-0.1,15.4,3.7c0,0-8.7-2.2-15.4-1V53.2z"/>
	<path class="st6" d="M116.8,20.7c-7,0-16.3,3-21.3,14.6l-9.1,5C87.2,22,99,11,110.2,11L116.8,20.7z"/>
	<path class="st6" d="M104.8,6.3c0,0-25.5,3.7-26.3,32.2V86l1.3-30l0.3-17.8C80.2,38.2,81.7,11.2,104.8,6.3z"/>
	<line class="st7" x1="67.3" y1="143.8" x2="17.1" y2="157.1"/>
	<line class="st7" x1="63.3" y1="153.1" x2="1.9" y2="173.5"/>
	<line class="st7" x1="88.3" y1="163.2" x2="24.9" y2="196.4"/>
	<line class="st7" x1="8.8" y1="186.9" x2="90" y2="150.5"/>
	<line class="st7" x1="121.1" y1="144.5" x2="206.9" y2="161.7"/>
	<line class="st7" x1="122.8" y1="160.8" x2="199.1" y2="186.3"/>
	<line class="st7" x1="214.1" y1="179.8" x2="118.7" y2="152.1"/>
	<path class="st8" d="M106.8,140.3c0,0,21.2,2,42-4.6l-19,9.9l41.1,8.9l7.2-3.9L145,146l16.8-16.5c0,0-52.9,18.1-112.4-3.3
		C49.5,126.3,67.3,139.4,106.8,140.3z"/>
	<polygon class="st8" points="64.1,144.7 53.3,144.5 69.2,138.3 67.3,133.5 50.7,126.7 59.3,134.7 40.3,146.9 48.1,148.9 	"/>
	<polygon class="st8" points="81.8,166.6 82.7,178 94.6,169.6 100.3,183.2 113.9,163.3 143.5,178.3 138.2,165.9 144.4,168 
		151,188.2 116,173.5 99.4,195.4 91,178.9 74.4,186.5 75.3,170 	"/>
</g>
</svg>
