<?xml version="1.0" encoding="utf-8"?>
<!-- Generator: Adobe Illustrator 19.1.0, SVG Export Plug-In . SVG Version: 6.00 Build 0)  -->
<svg version="1.1" id="Layer_1" xmlns="http://www.w3.org/2000/svg" xmlns:xlink="http://www.w3.org/1999/xlink" x="0px" y="0px"
	 viewBox="-581 382.3 60.4 29.7" style="enable-background:new -581 382.3 60.4 29.7;" xml:space="preserve">
<style type="text/css">
	.st0{display:none;}
	.st1{display:inline;}
	.st2{fill:#1E1E1E;}
</style>
<g id="Layer_1_1_" class="st0">
	<g class="st1">
		<polygon class="st2" points="-2276.6,1560.4 -2309.9,1560.4 -2309.9,1558.4 -2276.6,1558.4 		"/>
		<path class="st2" d="M-2264.4,1532.2l-12.3,15.5v0.9l0,0l0.1,10.6l0,0v1.2l12.5-2.7l12.3-15.5L-2264.4,1532.2z M-2265.3,1555.9
			l-1.2,0.3l-0.2-3.7h-4.5l-0.4-3.9h-3.2v-0.2l10.7-13.4l9.5,7.6L-2265.3,1555.9z"/>
	</g>
</g>
<g id="Layer_3" class="st0">
	<g class="st1">
		<path class="st2" d="M-2308.9,1548.6v-4l12.1-6.8v4l-9.3,4.9l9.3,4.8v3.9L-2308.9,1548.6z"/>
		<path class="st2" d="M-2282.6,1559.3V1534h2v25.4L-2282.6,1559.3L-2282.6,1559.3z"/>
		<path class="st2" d="M-2268.1,1555.4v-3.9l12.4-4.8l-12.4-4.9v-4l16.1,6.8v4L-2268.1,1555.4z"/>
	</g>
</g>
<g id="Layer_2">
	<path class="st2" d="M-545,400c-2.5,0.6-4.5,2.1-5.8,4.3c-2-5.9-7.5-10.2-14-10.2c-8.1,0-14.7,6.6-14.7,14.7h2
		c0-7,5.7-12.7,12.7-12.7s12.7,5.7,12.7,12.7h2c0-3.5,2.6-6.4,5.9-7C-544.5,401.3-544.8,400.7-545,400z"/>
	<circle class="st2" cx="-533.2" cy="396.5" r="11"/>
</g>
</svg>
