<?xml version="1.0" encoding="utf-8"?>
<!-- Generator: Adobe Illustrator 19.1.0, SVG Export Plug-In . SVG Version: 6.00 Build 0)  -->
<svg version="1.1" id="Layer_2" xmlns="http://www.w3.org/2000/svg" xmlns:xlink="http://www.w3.org/1999/xlink" x="0px" y="0px"
	 viewBox="0 0 272 234" style="enable-background:new 0 0 272 234;" xml:space="preserve">
<style type="text/css">
	.st0{fill:#1E1E1E;}
</style>
<path class="st0" d="M4.6,80c4,37,35.5,67,35.5,67c17.9,15.8,42.8,39.8,42.8,39.8c12,15,26.2,22.2,26.2,22.2
	c46,27.5,53.5,17,53.5,17c13-1,28-16.5,28-16.5c14.7-17.3,31-45.5,31-45.5c4.2-4.4,12-16.5,12-16.5C255.1,123,265.1,80,265.1,80
	c2.5-15.5-13.5-76-13.5-76s-3.3,1.8-3.7,6.8c-0.3,5,2.2,48.7-30.3,85.4c-5.9-9-14.8-19.7-24.1-19.7c0,0-14.3-4.3-46.5,0l-7,2
	l-14-3.8c0,0-24.8-0.9-45.5,14.3c0,0-6.1,6.3-8.5,20.7C48.5,100.7,30,74.2,30,74.2C26,68.7,19.1,30.9,19.1,24S8.6,4,8.6,4
	C11.2,17.9,4.6,80,4.6,80z M85.9,128.5c4.7-5.3,11.3-32.8,11.3-32.8c3.3-4.4,42.3-0.2,42.3-0.2c4.3,1.3,52-3.7,52-3.7
	c11.3,3.3,13.7,24.2,13.7,24.2c0.3,7.5-13.7,30.2-13.7,30.2c-9,4-24.7-2-24.7-2c-15.8-6.2,14.2-21.2,10.7-22.7s-49.5-1.5-54,2.7
	c-4.5,4.2,15.5,12.8,15.5,12.8s2.2,11.2-19.2,11.2C117.2,148.2,85.9,128.5,85.9,128.5z"/>
</svg>
