<?xml version="1.0" encoding="utf-8"?>
<!-- Generator: Adobe Illustrator 19.1.0, SVG Export Plug-In . SVG Version: 6.00 Build 0)  -->
<svg version="1.1" id="Layer_1" xmlns="http://www.w3.org/2000/svg" xmlns:xlink="http://www.w3.org/1999/xlink" x="0px" y="0px"
	 viewBox="-33 211 1156 372" style="enable-background:new -33 211 1156 372;" xml:space="preserve">
<style type="text/css">
	.st0{fill:#FFFFFF;stroke:#9B9B9B;stroke-miterlimit:10;}
</style>
<path class="st0" d="M267,321c0-16-13-29-29-29c-1.1,0-2.1,0.1-3.2,0.2c-3.9-14.7-17.3-25.5-33.1-25.5c-12,0-22.5,6.1-28.6,15.4
	c-0.7,0-1.4-0.1-2.1-0.1c-13.7,0-25.2,9.6-28.2,22.4c-10.7,2-18.8,11.4-18.8,22.6c0,12.7,10.3,23,23,23c0.3,0,0.7,0,1,0v0h93v-0.2
	C255.6,348.3,267,336,267,321z"/>
<path class="st0" d="M567.7,484c-1.9,0-3.7,0.2-5.5,0.5c-1-15.1-13.5-27.1-28.9-27.1c-13.3,0-24.4,8.9-27.9,21.1
	c-3.6-1.6-7.5-2.5-11.7-2.5c-16,0-29,13-29,29c0,0.5,0,1,0,1.5c-1-0.2-2.1-0.3-3.1-0.3c-9.9,0-17.9,8-17.9,17.9
	c0,9.9,8,17.9,17.9,17.9c1.1,0,2.1-0.1,3.1-0.3v0.3h103c16,0,29-13,29-29C596.7,497,583.7,484,567.7,484z"/>
<path class="st0" d="M1057.7,495.3c0.1-0.7,0.1-1.4,0.1-2.2c0-11.7-9.4-21.1-21.1-21.1c-2.9,0-5.7,0.6-8.3,1.7
	c-5.3-6.7-13.5-11-22.7-11c-13.3,0-24.4,8.9-27.9,21.1c-3.6-1.6-7.5-2.5-11.7-2.5c-16,0-29,13-29,29c0,0.5,0,1,0,1.5
	c-1-0.2-2.1-0.3-3.1-0.3c-9.9,0-17.9,8-17.9,17.9c0,9.9,8,17.9,17.9,17.9c1.1,0,2.1-0.1,3.1-0.3v0.3h103c16,0,29-13,29-29
	C1069.1,508.9,1064.6,500.6,1057.7,495.3z"/>
</svg>
