<?xml version="1.0" encoding="utf-8"?>
<!-- Generator: Adobe Illustrator 19.1.0, SVG Export Plug-In . SVG Version: 6.00 Build 0)  -->
<svg version="1.1" id="Layer_1" xmlns="http://www.w3.org/2000/svg" xmlns:xlink="http://www.w3.org/1999/xlink" x="0px" y="0px"
	 viewBox="0 0 1156 372" style="enable-background:new 0 0 1156 372;" xml:space="preserve">
<style type="text/css">
	.st0{fill:#FFFFFF;stroke:#9B9A9A;stroke-miterlimit:10;}
</style>
<g>
	<path class="st0" d="M274,81c-2.1,0-4.1,0.2-6,0.6c-3.7-14.9-17.2-26-33.3-26c-12,0-22.5,6.1-28.6,15.4c-0.7,0-1.3-0.1-2-0.1
		c-13.8,0-25.3,9.6-28.3,22.5c-1.5-0.3-3.1-0.5-4.7-0.5c-12.7,0-23,10.3-23,23c0,12.7,10.3,23,23,23h103c16,0,29-13,29-29
		C303,94,290,81,274,81z"/>
	<path class="st0" d="M600.7,273c-1.9,0-3.7,0.2-5.4,0.5c-1-15.1-13.5-27.1-28.9-27.1c-13.3,0-24.5,8.9-27.9,21.1
		c-3.6-1.6-7.6-2.5-11.8-2.5c-16,0-29,13-29,29c0,0.5,0,1,0,1.4c-1-0.2-2-0.3-3.1-0.3c-9.9,0-17.9,8-17.9,17.9
		c0,9.9,8,17.9,17.9,17.9c1,0,2.1-0.1,3.1-0.3v0.3h103c16,0,29-13,29-29C629.7,286,616.7,273,600.7,273z"/>
	<path class="st0" d="M1028.2,70.1c-1.1,0-2.1,0.1-3.1,0.3c0-0.5,0-0.9,0-1.4c0-16-13-29-29-29c-4.2,0-8.2,0.9-11.8,2.5
		c-3.4-12.2-14.6-21.1-27.9-21.1c-15.4,0-28,12-28.9,27.1c-1.8-0.3-3.6-0.5-5.4-0.5c-16,0-29,13-29,29s13,29,29,29h103v-0.3
		c1,0.2,2,0.3,3.1,0.3c9.9,0,17.9-8,17.9-17.9C1046.1,78.1,1038.1,70.1,1028.2,70.1z"/>
</g>
</svg>
