<?xml version="1.0" encoding="utf-8"?>
<!-- Generator: Adobe Illustrator 19.1.0, SVG Export Plug-In . SVG Version: 6.00 Build 0)  -->
<svg version="1.1" id="Layer_1" xmlns="http://www.w3.org/2000/svg" xmlns:xlink="http://www.w3.org/1999/xlink" x="0px" y="0px"
	 viewBox="-33 211 1156 372" style="enable-background:new -33 211 1156 372;" xml:space="preserve">
<style type="text/css">
	.st0{fill:#FFFFFF;stroke:#9B9A9A;stroke-miterlimit:10;}
</style>
<g>
	<path class="st0" d="M995.2,379.1c-1.1,0-2.1,0.1-3.1,0.3c0-0.5,0-0.9,0-1.4c0-16-13-29-29-29c-4.2,0-8.2,0.9-11.8,2.5
		c-3.4-12.2-14.6-21.1-27.9-21.1c-15.4,0-28,12-28.9,27.1c-1.8-0.3-3.6-0.5-5.4-0.5c-16,0-29,13-29,29s13,29,29,29h103v-0.3
		c1,0.2,2,0.3,3.1,0.3c9.9,0,17.9-8,17.9-17.9C1013.1,387.1,1005.1,379.1,995.2,379.1z"/>
</g>
</svg>
