<?xml version="1.0" encoding="utf-8"?>
<!-- Generator: Adobe Illustrator 19.1.0, SVG Export Plug-In . SVG Version: 6.00 Build 0)  -->
<svg version="1.1" id="Layer_1" xmlns="http://www.w3.org/2000/svg" xmlns:xlink="http://www.w3.org/1999/xlink" x="0px" y="0px"
	 viewBox="-588 382.3 46.5 29.7" style="enable-background:new -588 382.3 46.5 29.7;" xml:space="preserve">
<style type="text/css">
	.st0{display:none;}
	.st1{display:inline;fill:#1E1E1E;}
	.st2{display:inline;}
	.st3{fill:#1E1E1E;}
</style>
<g id="Layer_2" class="st0">
	<path class="st1" d="M-1701,1169.2c-2.5,0.6-4.5,2.1-5.8,4.3c-2-5.9-7.5-10.2-14-10.2c-8.1,0-14.7,6.6-14.7,14.7h2
		c0-7,5.7-12.7,12.7-12.7s12.7,5.7,12.7,12.7h2c0-3.5,2.6-6.4,5.9-7C-1700.5,1170.5-1700.8,1169.9-1701,1169.2z"/>
	<circle class="st1" cx="-1689.2" cy="1165.7" r="11"/>
</g>
<g id="Layer_3" class="st0">
	<g class="st2">
		<path class="st3" d="M-1734.9,1166.3v-4l12.1-6.8v4l-9.3,4.9l9.3,4.8v3.9L-1734.9,1166.3z"/>
		<path class="st3" d="M-1708.6,1177v-25.3h2v25.4L-1708.6,1177L-1708.6,1177z"/>
		<path class="st3" d="M-1694.1,1173.1v-3.9l12.4-4.8l-12.4-4.9v-4l16.1,6.8v4L-1694.1,1173.1z"/>
	</g>
</g>
<g id="Layer_1_1_">
	<g>
		<polygon class="st3" points="-567,411.1 -587.7,411.1 -587.7,409.1 -567,409.1 		"/>
		<path class="st3" d="M-554.8,382.9l-12.3,15.5v0.9l0,0l0.1,10.6l0,0v1.2l12.5-2.7l12.3-15.5L-554.8,382.9z M-555.7,406.6l-1.2,0.3
			l-0.2-3.7h-4.5l-0.4-3.9h-3.2v-0.2l10.7-13.4l9.5,7.6L-555.7,406.6z"/>
	</g>
</g>
</svg>
