<?xml version="1.0" encoding="utf-8"?>
<!-- Generator: Adobe Illustrator 19.1.0, SVG Export Plug-In . SVG Version: 6.00 Build 0)  -->
<svg version="1.1" id="Layer_1" xmlns="http://www.w3.org/2000/svg" xmlns:xlink="http://www.w3.org/1999/xlink" x="0px" y="0px"
	 viewBox="-154 496.2 483 233.8" style="enable-background:new -154 496.2 483 233.8;" xml:space="preserve">
<style type="text/css">
	.st0{fill:#FFFFFF;}
</style>
<circle cx="78" cy="613.3" r="114.5"/>
<g>
	<path class="st0" d="M40.9,647.9c-3.6,1.5-7.2,2.2-10.8,2.2c-5.8,0-10.9-1-15.5-3c-4.6-2-8.5-4.7-11.6-8.2
		c-3.2-3.5-5.6-7.6-7.2-12.3s-2.5-9.8-2.5-15.3c0-5.6,0.8-10.8,2.5-15.6c1.7-4.8,4.1-9,7.2-12.6c3.2-3.6,7-6.4,11.6-8.4
		c4.6-2.1,9.7-3.1,15.5-3.1c3.8,0,7.6,0.6,11.2,1.7c3.6,1.2,6.9,2.9,9.8,5.1c2.9,2.2,5.3,5,7.2,8.3c1.9,3.3,3,7.1,3.5,11.3H46
		c-1-4.2-2.9-7.4-5.7-9.5c-2.8-2.1-6.2-3.2-10.2-3.2c-3.7,0-6.9,0.7-9.5,2.2c-2.6,1.4-4.7,3.4-6.3,5.8c-1.6,2.4-2.8,5.2-3.5,8.3
		c-0.7,3.1-1.1,6.3-1.1,9.6c0,3.2,0.4,6.2,1.1,9.2c0.7,3,1.9,5.6,3.5,8s3.7,4.3,6.3,5.7c2.6,1.4,5.8,2.2,9.5,2.2
		c5.5,0,9.7-1.4,12.7-4.2c3-2.8,4.7-6.8,5.2-12H31.4v-12.3h31.5v40.6H52.4l-1.7-8.5C47.8,643.7,44.5,646.3,40.9,647.9z"/>
	<path class="st0" d="M92.7,573.4v75H76.2v-75H92.7z"/>
	<path class="st0" d="M160,573.4v13.9h-36.3v17.3h31.4v12.8h-31.4v31h-16.5v-75H160z"/>
</g>
</svg>
