<?xml version="1.0" encoding="utf-8"?>
<!-- Generator: Adobe Illustrator 19.1.0, SVG Export Plug-In . SVG Version: 6.00 Build 0)  -->
<svg version="1.1" id="Layer_1" xmlns="http://www.w3.org/2000/svg" xmlns:xlink="http://www.w3.org/1999/xlink" x="0px" y="0px"
	 viewBox="0 0 483 233.8" style="enable-background:new 0 0 483 233.8;" xml:space="preserve">
<style type="text/css">
	.st0{fill:#FFFFFF;}
</style>
<g>
	<path d="M143.8,218.6c-9.9,4.2-19.8,6.2-29.9,6.2c-15.9,0-30.1-2.8-42.8-8.3C58.4,211,47.7,203.4,39,193.8
		c-8.7-9.7-15.4-21-20-34.1c-4.6-13.1-7-27.1-7-42.2c0-15.5,2.3-29.8,7-43.1c4.6-13.3,11.3-24.8,20-34.7
		c8.7-9.9,19.4-17.6,32.1-23.2C83.8,10.8,98,8,113.9,8c10.6,0,20.9,1.6,30.9,4.8c10,3.2,19,7.9,27,14.1c8,6.2,14.7,13.8,19.9,22.9
		c5.2,9.1,8.4,19.5,9.6,31.3h-43.5c-2.7-11.6-7.9-20.3-15.7-26.1c-7.7-5.8-17.1-8.7-28.2-8.7c-10.3,0-19,2-26.1,6
		c-7.2,4-13,9.3-17.4,16c-4.5,6.7-7.7,14.3-9.7,22.8c-2,8.5-3,17.3-3,26.4c0,8.7,1,17.2,3,25.4c2,8.2,5.3,15.6,9.7,22.2
		c4.4,6.6,10.3,11.9,17.4,15.8c7.2,4,15.9,6,26.1,6c15.1,0,26.7-3.8,35-11.5c8.2-7.6,13-18.7,14.4-33.2h-45.9v-34h87.1v112h-29
		l-4.6-23.5C162.7,207.1,153.7,214.4,143.8,218.6z"/>
	<path d="M286.9,12.9v207.2h-45.6V12.9H286.9z"/>
	<path d="M472.7,12.9v38.3H372.5v47.9h86.8v35.4h-86.8v85.6h-45.6V12.9H472.7z"/>
</g>
<g>
	<path class="st0" d="M113.9,229.8c-16.5,0-31.6-2.9-44.8-8.7c-13.3-5.8-24.6-13.9-33.8-24c-9.1-10.1-16.2-22.1-21-35.8
		C9.5,147.8,7,133,7,117.4c0-16,2.4-31,7.2-44.8c4.8-13.8,11.9-26,21-36.3C44.4,26,55.8,17.7,69.1,11.8C82.3,6,97.4,3,113.9,3
		c11.1,0,22,1.7,32.4,5c10.5,3.4,20.1,8.4,28.5,14.9c8.5,6.6,15.6,14.8,21.2,24.4c5.6,9.7,9,20.9,10.2,33.3c0.1,1.4-0.3,2.8-1.3,3.8
		c-0.9,1-2.3,1.6-3.7,1.6h-43.5c-2.3,0-4.3-1.6-4.9-3.9c-2.4-10.4-7.1-18.2-13.8-23.3c-6.9-5.2-15.1-7.7-25.2-7.7
		c-9.3,0-17.3,1.8-23.7,5.3C83.8,60.2,78.5,65,74.5,71c-4.1,6.1-7.1,13.3-9,21.2c-1.9,8.1-2.9,16.6-2.9,25.3c0,8.3,1,16.4,2.9,24.2
		c1.9,7.6,4.9,14.6,9,20.6c4,5.9,9.3,10.7,15.7,14.2c6.4,3.5,14.3,5.3,23.7,5.3c13.7,0,24.3-3.4,31.6-10.1
		c6.2-5.8,10.3-14,12.1-24.6h-40.2c-2.8,0-5-2.2-5-5v-34c0-2.8,2.2-5,5-5h87.1c2.8,0,5,2.2,5,5v112c0,2.8-2.2,5-5,5h-29
		c-2.4,0-4.4-1.7-4.9-4l-2.7-13.5c-6.8,7-14.2,12.2-22.1,15.5h0C135.3,227.6,124.6,229.8,113.9,229.8z M113.9,13
		c-15.1,0-28.8,2.7-40.8,8c-12,5.3-22.2,12.7-30.3,22c-8.2,9.3-14.6,20.4-19.1,33c-4.4,12.7-6.7,26.6-6.7,41.4
		c0,14.4,2.2,28.1,6.7,40.6c4.4,12.4,10.8,23.3,19,32.4c8.2,9.1,18.4,16.3,30.4,21.5c12,5.2,25.7,7.9,40.8,7.9c9.3,0,18.7-2,28-5.8
		c0,0,0,0,0,0c9-3.8,17.4-10.7,25-20.4c1.2-1.5,3.2-2.2,5.1-1.8c1.9,0.5,3.4,2,3.8,3.9l3.8,19.5h19.9v-102h-77.1v24h40.9
		c1.4,0,2.7,0.6,3.7,1.6c0.9,1,1.4,2.4,1.3,3.8c-1.5,15.7-6.8,28-15.9,36.4c-9.1,8.5-22.1,12.8-38.4,12.8c-11.1,0-20.7-2.2-28.5-6.6
		c-7.8-4.3-14.3-10.2-19.1-17.4c-4.8-7-8.3-15-10.4-23.8c-2.1-8.6-3.2-17.5-3.2-26.6c0-9.4,1.1-18.7,3.2-27.6
		c2.2-9.1,5.7-17.3,10.4-24.4c4.9-7.3,11.3-13.2,19.2-17.6c7.9-4.4,17.5-6.6,28.5-6.6c12.1,0,22.6,3.3,31.2,9.7
		c7.8,5.8,13.3,14.3,16.5,25.1h34c-1.4-8.8-4.2-16.8-8.2-23.9c-4.9-8.5-11.1-15.7-18.6-21.5c-7.5-5.8-16.1-10.3-25.5-13.3
		C133.9,14.5,124,13,113.9,13z"/>
	<path class="st0" d="M286.9,225.2h-45.6c-2.8,0-5-2.2-5-5V12.9c0-2.8,2.2-5,5-5h45.6c2.8,0,5,2.2,5,5v207.2
		C291.9,222.9,289.7,225.2,286.9,225.2z M246.3,215.2h35.6V17.9h-35.6V215.2z"/>
	<path class="st0" d="M372.5,225.2h-45.6c-2.8,0-5-2.2-5-5V12.9c0-2.8,2.2-5,5-5h145.7c2.8,0,5,2.2,5,5v38.3c0,2.8-2.2,5-5,5h-95.1
		v37.9h81.8c2.8,0,5,2.2,5,5v35.4c0,2.8-2.2,5-5,5h-81.8v80.6C377.5,222.9,375.3,225.2,372.5,225.2z M331.9,215.2h35.6v-80.6
		c0-2.8,2.2-5,5-5h81.8v-25.4h-81.8c-2.8,0-5-2.2-5-5V51.2c0-2.8,2.2-5,5-5h95.1V17.9H331.9V215.2z"/>
</g>
<rect width="106" height="51.3"/>
</svg>
