<?xml version="1.0" encoding="utf-8"?>
<!-- Generator: Adobe Illustrator 19.1.0, SVG Export Plug-In . SVG Version: 6.00 Build 0)  -->
<svg version="1.1" id="Layer_1" xmlns="http://www.w3.org/2000/svg" xmlns:xlink="http://www.w3.org/1999/xlink" x="0px" y="0px"
	 viewBox="-547 375.8 74.3 43.2" style="enable-background:new -547 375.8 74.3 43.2;" xml:space="preserve">
<style type="text/css">
	.st0{fill:#FFFFFF;}
</style>
<path class="st0" d="M-501.6,378.9c0,0-1.8,2.2-1.8,3.4c0,1.2-1.2,7.5-1.8,8.4c0,0-3.1,4.5-7.1,6c-0.4-2.4-1.4-3.5-1.4-3.5
	c-3.5-2.6-7.6-2.4-7.6-2.4l-2.4,0.6l-1.2-0.3c-5.4-0.7-7.8,0-7.8,0c-1.6,0-3.1,1.8-4.1,3.3c-5.5-6.2-5-13.5-5.1-14.4
	c-0.1-0.8-0.6-1.1-0.6-1.1s-2.7,10.2-2.3,12.8c0,0,1.7,7.2,5.3,11.3c0,0,1.3,2,2,2.8c0,0,2.7,4.7,5.2,7.6c0,0,2.5,2.6,4.7,2.8
	c0,0,1.3,1.8,9-2.9c0,0,2.4-1.2,4.4-3.7c0,0,4.2-4,7.2-6.7c0,0,5.3-5,6-11.3C-500.9,391.7-502,381.3-501.6,378.9z M-520.2,403.2
	c-3.6,0-3.2-1.9-3.2-1.9s3.4-1.4,2.6-2.2c-0.8-0.7-8.5-0.7-9.1-0.5c-0.6,0.3,4.5,2.8,1.8,3.8c0,0-2.6,1-4.2,0.3c0,0-2.4-3.8-2.3-5.1
	c0,0,0.4-3.5,2.3-4.1c0,0,8,0.8,8.7,0.6c0,0,6.6-0.7,7.1,0c0,0,1.1,4.6,1.9,5.5C-514.5,399.9-519.8,403.2-520.2,403.2z"/>
<path class="st0" d="M-501.5,379c0,0-1.8,2.2-1.8,3.4c0,1.2-1.2,7.5-1.8,8.4c0,0-3.1,4.5-7.1,6c-0.4-2.4-1.4-3.5-1.4-3.5
	c-3.5-2.6-7.6-2.4-7.6-2.4l-2.4,0.6l-1.2-0.3c-5.4-0.7-7.8,0-7.8,0c-1.6,0-3.1,1.8-4.1,3.3c-5.5-6.2-5-13.5-5.1-14.4
	c-0.1-0.8-0.6-1.1-0.6-1.1s-2.7,10.2-2.3,12.8c0,0,1.7,7.2,5.3,11.3c0,0,1.3,2,2,2.8c0,0,2.7,4.7,5.2,7.6c0,0,2.5,2.6,4.7,2.8
	c0,0,1.3,1.8,9-2.9c0,0,2.4-1.2,4.4-3.7c0,0,4.2-4,7.2-6.7c0,0,5.3-5,6-11.3C-500.9,391.7-502,381.3-501.5,379z M-520.2,403.2
	c-3.6,0-3.2-1.9-3.2-1.9s3.4-1.4,2.6-2.2c-0.8-0.7-8.5-0.7-9.1-0.5c-0.6,0.3,4.5,2.8,1.8,3.8c0,0-2.6,1-4.2,0.3c0,0-2.4-3.8-2.3-5.1
	c0,0,0.4-3.5,2.3-4.1c0,0,8,0.8,8.7,0.6c0,0,6.6-0.7,7.1,0c0,0,1.1,4.6,1.9,5.5C-514.5,399.9-519.8,403.2-520.2,403.2z"/>
<rect x="-476.2" y="378.5" class="st0" width="1.5" height="34.8"/>
</svg>
