<?xml version="1.0" encoding="utf-8"?>
<!-- Generator: Adobe Illustrator 19.1.0, SVG Export Plug-In . SVG Version: 6.00 Build 0)  -->
<svg version="1.1" id="Layer_1" xmlns="http://www.w3.org/2000/svg" xmlns:xlink="http://www.w3.org/1999/xlink" x="0px" y="0px"
	 viewBox="-329 285.8 132.4 43.2" style="enable-background:new -329 285.8 132.4 43.2;" xml:space="preserve">
<style type="text/css">
	.st0{fill:#1E1E1E;}
</style>
<g>
	<path class="st0" d="M-313.8,298.1c0.9,0.4,1.7,1,2.3,1.8c0.5,0.7,0.8,1.4,0.9,2.1c0.1,0.7,0.2,1.9,0.2,3.6v10.9h-4.9v-11.3
		c0-1-0.2-1.8-0.5-2.4c-0.4-0.9-1.3-1.3-2.5-1.3c-1.3,0-2.2,0.4-2.9,1.3s-1,2.1-1,3.7v10h-4.8v-24.9h4.8v8.8
		c0.7-1.1,1.5-1.8,2.4-2.2c0.9-0.4,1.9-0.6,2.9-0.6C-315.8,297.5-314.7,297.7-313.8,298.1z"/>
	<path class="st0" d="M-293.8,298.4c1.3,0.6,2.4,1.5,3.2,2.7c0.8,1.1,1.2,2.4,1.5,3.8c0.1,0.8,0.2,2.1,0.2,3.7h-13.6
		c0.1,1.9,0.7,3.2,1.9,3.9c0.7,0.5,1.6,0.7,2.7,0.7c1.1,0,2-0.3,2.7-0.8c0.4-0.3,0.7-0.7,1-1.3h4.9c-0.1,1.1-0.7,2.2-1.8,3.3
		c-1.7,1.8-4,2.7-7,2.7c-2.5,0-4.6-0.8-6.5-2.3s-2.8-4-2.8-7.4c0-3.2,0.8-5.7,2.5-7.4c1.7-1.7,3.9-2.6,6.6-2.6
		C-296.6,297.5-295.1,297.8-293.8,298.4z M-301.1,302.5c-0.7,0.7-1.1,1.7-1.3,2.9h8.3c-0.1-1.3-0.5-2.3-1.3-2.9
		c-0.8-0.7-1.7-1-2.9-1C-299.4,301.5-300.4,301.8-301.1,302.5z"/>
	<path class="st0" d="M-285.8,320h0.6c0.5,0,0.9,0,1.4-0.1s0.8-0.2,1.1-0.4c0.3-0.2,0.5-0.6,0.8-1.2s0.3-1,0.3-1.1l-6.8-19.3h5.4
		l4,13.6l3.8-13.6h5.1l-6.3,18.2c-1.2,3.5-2.2,5.7-2.9,6.5c-0.7,0.8-2.1,1.3-4.3,1.3c-0.4,0-0.8,0-1,0s-0.7,0-1.2-0.1V320z"/>
	<path class="st0" d="M-257,297.5c0.1,0,0.2,0,0.4,0v5c-0.3,0-0.6-0.1-0.8-0.1s-0.4,0-0.6,0c-1.9,0-3.3,0.6-3.9,1.9
		c-0.4,0.7-0.6,1.8-0.6,3.3v8.8h-4.9v-18.5h4.6v3.2c0.7-1.2,1.4-2.1,2-2.5c0.9-0.8,2.1-1.1,3.5-1.1
		C-257.1,297.5-257,297.5-257,297.5z"/>
	<path class="st0" d="M-238.3,314.2c-1.6,1.9-3.9,2.9-7.1,2.9s-5.5-1-7.1-2.9s-2.3-4.2-2.3-7c0-2.7,0.8-5,2.3-6.9
		c1.6-2,3.9-2.9,7.1-2.9s5.5,1,7.1,2.9c1.6,2,2.3,4.3,2.3,6.9C-236,310-236.8,312.3-238.3,314.2z M-242.2,311.5
		c0.8-1,1.1-2.4,1.1-4.3s-0.4-3.3-1.1-4.3c-0.8-1-1.8-1.5-3.3-1.5s-2.5,0.5-3.3,1.5s-1.1,2.4-1.1,4.3s0.4,3.3,1.1,4.3
		c0.8,1,1.9,1.5,3.3,1.5S-242.9,312.5-242.2,311.5z"/>
	<path class="st0" d="M-228.8,310.6c0.1,0.9,0.3,1.5,0.7,1.8c0.6,0.6,1.7,1,3.3,1c1,0,1.7-0.1,2.3-0.4c0.6-0.3,0.8-0.7,0.8-1.3
		c0-0.5-0.2-1-0.7-1.2c-0.5-0.3-2.1-0.8-5.1-1.5c-2.1-0.5-3.6-1.2-4.4-2c-0.9-0.8-1.3-1.9-1.3-3.3c0-1.7,0.7-3.2,2-4.4
		c1.3-1.2,3.2-1.8,5.7-1.8c2.3,0,4.2,0.5,5.7,1.4s2.3,2.5,2.5,4.8h-4.8c-0.1-0.6-0.2-1.1-0.5-1.5c-0.5-0.7-1.4-1-2.7-1
		c-1.1,0-1.8,0.2-2.3,0.5c-0.4,0.3-0.7,0.7-0.7,1.2c0,0.6,0.2,1,0.7,1.2c0.5,0.3,2.2,0.7,5,1.3c1.9,0.5,3.4,1.1,4.3,2.1
		c0.9,0.9,1.4,2.1,1.4,3.5c0,1.8-0.7,3.3-2,4.5c-1.4,1.2-3.5,1.7-6.3,1.7c-2.9,0-5.1-0.6-6.4-1.8c-1.4-1.2-2.1-2.8-2.1-4.7h4.9
		V310.6z"/>
	<path class="st0" d="M-209.5,310.6c0.1,0.9,0.3,1.5,0.7,1.8c0.6,0.6,1.7,1,3.3,1c1,0,1.7-0.1,2.3-0.4c0.6-0.3,0.8-0.7,0.8-1.3
		c0-0.5-0.2-1-0.7-1.2c-0.5-0.3-2.1-0.8-5.1-1.5c-2.1-0.5-3.6-1.2-4.4-2c-0.9-0.8-1.3-1.9-1.3-3.3c0-1.7,0.7-3.2,2-4.4
		c1.3-1.2,3.2-1.8,5.7-1.8c2.3,0,4.2,0.5,5.7,1.4s2.3,2.5,2.5,4.8h-4.8c-0.1-0.6-0.2-1.1-0.5-1.5c-0.5-0.7-1.4-1-2.7-1
		c-1.1,0-1.8,0.2-2.3,0.5c-0.4,0.3-0.7,0.7-0.7,1.2c0,0.6,0.2,1,0.7,1.2c0.5,0.3,2.2,0.7,5,1.3c1.9,0.5,3.4,1.1,4.3,2.1
		c0.9,0.9,1.4,2.1,1.4,3.5c0,1.8-0.7,3.3-2,4.5c-1.4,1.2-3.5,1.7-6.3,1.7c-2.9,0-5.1-0.6-6.4-1.8c-1.4-1.2-2.1-2.8-2.1-4.7h4.9
		V310.6z"/>
</g>
</svg>
