<?xml version="1.0" encoding="utf-8"?>
<!-- Generator: Adobe Illustrator 19.1.0, SVG Export Plug-In . SVG Version: 6.00 Build 0)  -->
<svg version="1.1" id="Layer_1" xmlns="http://www.w3.org/2000/svg" xmlns:xlink="http://www.w3.org/1999/xlink" x="0px" y="0px"
	 viewBox="-433 350 355.7 94" style="enable-background:new -433 350 355.7 94;" xml:space="preserve">
<style type="text/css">
	.st0{fill:#FFFFFF;}
	.st1{fill:none;stroke:#515151;stroke-width:2.1969;stroke-linecap:round;stroke-linejoin:round;stroke-miterlimit:10;}
	.st2{fill:none;stroke:#515151;stroke-width:2.2631;stroke-linecap:round;stroke-linejoin:round;stroke-miterlimit:10;}
	.st3{fill:none;stroke:#515151;stroke-width:2;stroke-linecap:round;stroke-linejoin:round;stroke-miterlimit:10;}
</style>
<g id="Layer_1_2_">
	<g id="Layer_4">
		<polygon class="st0" points="-271.1,356.2 -327.3,378.1 -323.3,396 -358.5,389.8 -429,418.5 -332.6,421.7 -319.4,437.4 
			-120.6,430.3 -82.4,431.3 		"/>
	</g>
	<g id="Layer_1_1_">
		<path d="M-319.8,438.4l-15.1-16.8l214.3,8.7v1L-319.8,438.4z M-330.8,422.7l11.4,14.7l177.3-7L-330.8,422.7z"/>
	</g>
</g>
<g id="Layer_2">
	<path class="st1" d="M-337.8,413.6c2.5,0.2,4.9,0.3,7.2,0.2c0.4,0,0.8,0,1.1-0.2c0.4-0.2,0.4-0.5,0.4-0.8c0.3-1.7-0.8-3.4-2.7-4.5
		c2.5,0,4.9,0,7.2-0.1c-0.5-0.9-1.8-1.6-3.1-1.9c1.9,0,3.8,0,5.7,0c0.3,0,0.5,0,0.8-0.1c0.4-0.3,0.1-0.6-0.1-1
		c-1.2-1.2-2.9-2.1-4.8-2.8c3.7,0.2,7.5,0.3,11.2,0.2c-0.1-1.2-1-2.3-2.3-3c2.5,0,4.9,0,7.5,0c-0.4-0.9-1.4-1.7-2.7-2"/>
	<path class="st2" d="M-313.1,414.7c1.2-0.3,2.5-0.1,3.8,0c1.2,0.1,2.6,0.2,3.7-0.4s1.1-1.8,0-2.2c-1.1-0.3-2.6,0.2-3.1-0.5
		c1.4-0.1,2.9-0.1,4.2-0.2c0.4,0,0.7,0,1.1-0.2c0.8-0.4,0.4-1.3-0.4-1.7c-0.8-0.4-1.8-0.7-2.3-1.2c1.8-0.1,3.5-0.4,5.2-0.8
		c0.3-0.1,0.7-0.2,0.7-0.5c0-0.2-0.3-0.5-0.5-0.6c-0.8-0.5-1.5-0.9-2.3-1.4c1.4-0.1,2.6-0.2,4-0.3c0.3,0,0.7-0.1,1-0.2
		c0.4-0.3,0.3-0.7,0.1-0.9c-0.1-0.7-0.4-1.2-0.5-1.9c-0.1-0.3-0.1-0.6,0-0.8c0.3-0.4,0.8-0.5,1.2-0.7c0.4-0.2,0.5-0.8,0-0.8"/>
	<path class="st3" d="M-290.1,414.9c1.1,0.2,2.2,0,3.1-0.7c0.2-0.1,0.4-0.3,0.4-0.6c0-0.2-0.1-0.4-0.2-0.6c-0.6-1-1.7-1.7-2.8-1.9
		c1.4,0,2.9,0.1,4.3,0c0.3,0,0.6-0.1,0.7-0.3c0.1-0.2-0.1-0.5-0.2-0.7c-0.5-0.5-0.9-1.1-1.4-1.6c0.5-0.6,1.3-1,2.1-1
		c0.6,0,1.4,0.1,1.5-0.5c0.1-0.4-0.3-0.7-0.6-0.9c-0.8-0.5-1.7-0.9-2.6-1.1c0.9-0.5,2.2,0.1,3.2-0.4s0.9-2.3-0.1-2.7"/>
	<path class="st3" d="M-273.1,415c0.8,0.2,1.6,0.3,2.3,0.2s1.5-0.7,1.7-1.4c0.2-0.8-0.5-1.7-1.3-1.5c1.3-0.5,2.6-1.2,3-2.5
		s-0.7-3-2-2.6c0.7,0.1,1.5-0.4,1.6-1.1c0.2-0.7-0.2-1.5-0.8-1.8"/>
	<path class="st3" d="M-258.2,417.2c1.8,0,3.7,0,5.5,0c0.4,0,0.8,0,1.2-0.2s0.6-0.7,0.4-1c-0.1-0.2-0.4-0.4-0.6-0.5
		c-1.2-0.6-2.5-0.9-3.8-0.8c1.8,0,3.7-0.5,5.2-1.6c0.3-0.2,0.5-0.4,0.6-0.7c0.2-0.6-0.4-1.3-1-1.6c-0.6-0.2-1.4-0.3-2-0.6
		c0.9-0.4,1.7-0.8,2.6-1.2c0.2-0.1,0.5-0.2,0.7-0.5c0.4-0.5,0.2-1.2-0.2-1.6s-1-0.6-1.5-0.8"/>
	<path class="st3" d="M-306.8,397c1.1,0.3,1.8-1.4,1.1-2.3c-0.3-0.4-0.7-0.7-1.1-0.8"/>
	<path class="st3" d="M-273,378.4c0.6,0,1.2,0.1,1.8-0.2c0.6-0.3,1-0.9,0.7-1.5c2.2,0,4.3,0,6.5,0c0-0.8,0-1.6,0.1-2.5"/>
	<path class="st3" d="M-291.4,389.6c-0.7-0.6-1.5-1.1-2.4-1.3c1,0.4,2.2-0.3,2.4-1.3c0.2-1-0.5-2.1-1.6-2.3c1.4,0.1,2.9,0.3,4.3,0.4
		s2.9,0.2,4.2-0.4c1.3-0.7,2-2.4,1.2-3.5c2.1,0,4.2-0.1,6.3-0.1c0.1-0.4,0.1-0.9,0-1.3"/>
	<path class="st3" d="M-291.8,399.1c0.6,0.2,1.2,0.3,1.8,0.2s1.1-0.6,1.1-1.2c-0.1-0.5-0.5-0.9-0.9-1.1c-0.9-0.5-1.8-0.9-2.8-1.2
		c0.9,0.6,2.2-0.7,1.9-1.7c-0.3-1-1.6-1.5-2.7-1.2c0.1-0.6-0.5-0.3,0.1-0.6"/>
	<path class="st3" d="M-257.8,382.7c-0.1-0.5-0.4-1-0.8-1.4c1.4,0,2.8,0,4.2-0.1c0.3,0,0.6,0,0.8-0.2s0.2-0.5,0.2-0.8
		c-0.1-1.5-0.2-3-0.3-4.5c2.1,0.5,4.4-0.3,5.8-1.9"/>
	<path class="st3" d="M-271.4,391.6c-0.1-1-0.3-2.1-0.7-3c2.3,0,4.6-0.1,6.9-0.1c0.5,0,1,0,1.5-0.2c1.3-0.6,1.3-2.5,1.1-3.9
		c1.1,0,2.2,0,3.4,0"/>
	<path class="st3" d="M-275.9,401.5c1.2,0.2,2.7-0.4,3.1-1.5c0.4-1.2-0.5-2.8-1.8-2.6c1.2,0.5,2.8,0.1,3.3-1.1
		c0.2-0.5,0.4,0,0.2-0.5"/>
	<path class="st3" d="M-253.3,397.3c0.7-0.8,0-1.9-0.8-2.6c-0.7-0.7-1.6-1.7-1.1-2.6c-0.4,0.3,0.3,0.8,0.7,0.8
		c1.2,0.1,2.5,0.1,3.7,0.2c0.5,0,1,0,1.4-0.2c0.6-0.4,0.8-1.2,0.8-1.9s-0.2-1.5,0-2.2c1.5,0,3,0,4.5-0.1c0.4,0,0.7-0.1,1-0.3
		c0.9-0.7,0.1-2.2,0.8-3.1"/>
	<path class="st3" d="M-256.3,405c1.1,0.1,2.2-0.9,2.2-2c-1-0.1-2-0.6-2.8-1.3c0.2-0.6,0.9-0.8,1.4-1.1s0.8,0.2,0.5-0.3"/>
	<path class="st3" d="M-234.4,399.4c0.5-0.6,0.7-1.7,0-2.2c-0.2-0.2-0.5-0.2-0.6-0.4c-0.4-0.4-0.3-1.2-0.2-1.8c1,0,2.1,0,3.1,0
		c0.8,0,1.7,0,2.4-0.5s1.1-1.4,0.7-2.1c0.9,0.1,1.8,0.2,2.5-0.2c0.8-0.3,1.4-1.3,1.1-2.1c-0.2-0.5-0.6-0.8-0.9-1.2
		c0.7-0.1,1.5,0,2.3-0.1s1.6-0.2,2.1-0.7s0.7-1.5,0.1-2"/>
	<path class="st3" d="M-235.9,407c0.6,0.4,1.5,0,1.7-0.7s-0.1-1.4-0.5-2s-1-1-1.4-1.6c0.5,0.5,1,0.5,0.8-0.1"/>
	<path class="st3" d="M-210.6,395.7c0.4-0.6,1.2-0.1,1.9,0c0.6,0.1,1.2-0.3,1.5-0.9c0.2-0.6,0.1-1.3-0.4-1.7"/>
	<path class="st3" d="M-213.2,411c0.5-0.7,0.9-1.6,1-2.5c0-0.2,0.1-0.5-0.1-0.7c-0.1-0.2-0.4-0.3-0.7-0.3c-0.8-0.2-1.7-0.3-2.5-0.5
		c1.2-0.8,1-2.9-0.2-3.5c0.6,0.4,1.5-0.1,1.5-0.8c0-1.3-2.3-1.7-2.2-2.9c-0.1,0.2,0,0.6,0.2,0.7c0.7-0.6,1.6-0.8,2.5-1.1
		c0.6-0.3,1.1-0.7,1.3-1.3"/>
	<path class="st3" d="M-219.2,410.9c0.7-0.2,1.4,0.5,1.3,1.2s-0.7,1.2-1.4,1.3c-0.2,0-0.4,0-0.6,0.1c-0.3,0.2-0.2,0.7,0,1
		s0.5,0.5,0.8,0.7c0.6,0.7,0.2,1.8-0.4,2.4s-1.6,0.8-2.5,1"/>
	<path class="st3" d="M-207.2,412.9c0.7,0.3,1.3,0.7,1.9,1.2c0.4,1.1-0.4,2.5-1.5,2.7c0.7,0.5,1.4,1.3,1,2.1
		c-0.4,0.8-1.8,0.6-2.4,1.2"/>
	<path class="st3" d="M-198.5,406.3"/>
	<path class="st3" d="M-197,413.6c1.2-0.1,2.1-1.5,1.8-2.7s-1.7-1.9-2.9-1.7"/>
	<path class="st3" d="M-182.7,415.2c0.5,0.4,1.3,0.1,1.6-0.4c0.3-0.6,0.1-1.3-0.3-1.8c-0.4-0.5-0.9-0.8-1.5-1.2c0.5,0,0.9,0,1.4,0
		c0.1-1.1-0.3-2.3-0.9-3.3"/>
	<path class="st3" d="M-179.8,406.8c1.5,0.1,2.9-1.3,2.8-2.8c0.8,0.1,1.6,0.3,2.4,0s1.4-0.9,1.4-1.7"/>
</g>
<path d="M-319.3,380l198.7,41.3C-120.6,421.3-310.3,375-319.3,380z"/>
<path d="M-80.3,433.2L-80.3,433.2L-429,418.5c-0.2,0-0.4-0.2-0.5-0.4c0-0.2,0.1-0.5,0.3-0.5l70.3-27.7c0.1,0,0.2,0,0.3,0l34.8,5.1
	l-3.5-16.8c0-0.2,0.1-0.4,0.3-0.5l55.8-21.4c0.1,0,0.3-0.1,0.4,0l190.7,76c0.2,0.1,0.4,0.3,0.3,0.6C-79.8,433-80,433.2-80.3,433.2z
	 M-426.6,417.6l339.4,12.9l-183.7-72.3l-55.5,20.5l4.7,16.4l210.8,30.9c0.3,0,5.5,0.8,6.7,1.2c0.3,0.1,3.8,1.4,3.5,1.3L-323.3,396
	l0,0l-35.4-3.8L-426.6,417.6z"/>
</svg>
