<?xml version="1.0" encoding="utf-8"?>
<!-- Generator: Adobe Illustrator 19.1.0, SVG Export Plug-In . SVG Version: 6.00 Build 0)  -->
<svg version="1.1" id="Layer_1" xmlns="http://www.w3.org/2000/svg" xmlns:xlink="http://www.w3.org/1999/xlink" x="0px" y="0px"
	 viewBox="-433 350 355.7 94" style="enable-background:new -433 350 355.7 94;" xml:space="preserve">
<style type="text/css">
	.st0{fill:#FFFFFF;}
</style>
<g id="Layer_4">
	<polygon class="st0" points="-271.1,356.2 -327.3,378.1 -323.3,396 -358.5,389.8 -429,418.5 -332.6,421.7 -319.4,437.4 
		-120.6,430.3 -82.4,431.3 	"/>
</g>
<g id="Layer_1_1_">
	<path d="M-80.3,433.2L-80.3,433.2L-429,418.5c-0.2,0-0.4-0.2-0.5-0.4c0-0.2,0.1-0.5,0.3-0.5l70.3-27.7c0.1,0,0.2,0,0.3,0l34.8,5.1
		l-3.5-16.8c0-0.2,0.1-0.4,0.3-0.5l55.8-21.4c0.1,0,0.3-0.1,0.4,0l190.7,76c0.2,0.1,0.4,0.3,0.3,0.6C-79.8,433-80,433.2-80.3,433.2z
		 M-426.6,417.6l339.4,12.9l-183.7-72.3l-55.5,20.5l4.7,16.4l210.8,30.9c0.3,0,5.5,0.8,6.7,1.2c0.3,0.1,3.8,1.4,3.5,1.3L-323.3,396
		l0,0l-35.4-3.8L-426.6,417.6z"/>
	<path d="M-319.3,380l198.7,41.3C-120.6,421.3-310.3,375-319.3,380z"/>
	<path d="M-319.8,438.4l-15.1-16.8l214.3,8.7v1L-319.8,438.4z M-330.8,422.7l11.4,14.7l177.3-7L-330.8,422.7z"/>
</g>
</svg>
