<?xml version="1.0" encoding="utf-8"?>
<!-- Generator: Adobe Illustrator 19.1.0, SVG Export Plug-In . SVG Version: 6.00 Build 0)  -->
<svg version="1.1" xmlns="http://www.w3.org/2000/svg" xmlns:xlink="http://www.w3.org/1999/xlink" x="0px" y="0px"
	 viewBox="0 0 355.7 94" style="enable-background:new 0 0 355.7 94;" xml:space="preserve">
<style type="text/css">
	.st0{fill:#FFFFFF;}
</style>
<g id="Layer_4">
	<polygon class="st0" points="161.9,6.2 105.7,28.1 109.7,46 74.5,39.8 4,68.5 100.4,71.7 113.6,87.4 312.4,80.3 350.6,81.3 	"/>
</g>
<g id="Layer_1">
	<path d="M352.7,83.2C352.7,83.2,352.7,83.2,352.7,83.2L4,68.5c-0.2,0-0.4-0.2-0.5-0.4c0-0.2,0.1-0.5,0.3-0.5l70.3-27.7
		c0.1,0,0.2,0,0.3,0l34.8,5.1l-3.5-16.8c0-0.2,0.1-0.4,0.3-0.5l55.8-21.4c0.1,0,0.3-0.1,0.4,0l190.7,76c0.2,0.1,0.4,0.3,0.3,0.6
		C353.2,83,353,83.2,352.7,83.2z M6.4,67.6l339.4,12.9L162.1,8.2l-55.5,20.5l4.7,16.4L322.1,76c0.3,0,5.5,0.8,6.7,1.2
		c0.3,0.1,3.8,1.4,3.5,1.3L109.7,46c0,0,0,0,0,0l-35.4-3.8L6.4,67.6z"/>
	<path d="M113.7,30l198.7,41.3C312.4,71.3,122.7,25,113.7,30z"/>
	<path d="M113.2,88.4L98.1,71.6l214.3,8.7l0,1L113.2,88.4z M102.2,72.7l11.4,14.7l177.3-7L102.2,72.7z"/>
</g>
</svg>
