<?xml version="1.0" encoding="utf-8"?>
<!-- Generator: Adobe Illustrator 19.1.0, SVG Export Plug-In . SVG Version: 6.00 Build 0)  -->
<svg version="1.1" id="Layer_1" xmlns="http://www.w3.org/2000/svg" xmlns:xlink="http://www.w3.org/1999/xlink" x="0px" y="0px"
	 viewBox="0 0 1156 182" style="enable-background:new 0 0 1156 182;" xml:space="preserve">
<polygon points="755,92 178.5,91 181.5,90 747,90 "/>
<polygon points="935,37.7 358.5,36.7 361.5,35.7 927,35.7 "/>
<polygon points="675.5,80.3 344.5,79.3 344.2,78.3 664.7,78.3 "/>
<polygon points="379.3,69.2 48.4,68.6 48,68 368.5,68 "/>
<polygon points="433,122.2 102,121.6 101.7,121 422.2,121 "/>
<polygon points="563.5,53.9 106.5,52.9 109.5,51.9 555.5,51.9 "/>
<polygon points="1144,115.4 567.5,114.4 570.5,113.4 1136,113.4 "/>
<polygon points="1041,129.7 464.5,128.7 467.5,127.7 1033,127.7 "/>
<polygon points="903.5,145 446.5,144 449.5,143 895.5,143 "/>
<path d="M391.8,136c-16.5,0-330.9-1-330.9-1l-0.4-1H381C381,134,408.3,136,391.8,136z"/>
<polygon points="344.2,113.4 13.2,112.4 12.9,111.4 333.4,111.4 "/>
<polygon points="1038.2,54.9 707.2,53.9 706.9,52.9 1027.4,52.9 "/>
</svg>
