<?xml version="1.0" encoding="utf-8"?>
<!-- Generator: Adobe Illustrator 19.1.0, SVG Export Plug-In . SVG Version: 6.00 Build 0)  -->
<svg version="1.1" id="Layer_1" xmlns="http://www.w3.org/2000/svg" xmlns:xlink="http://www.w3.org/1999/xlink" x="0px" y="0px"
	 viewBox="-33 306 1156 182" style="enable-background:new -33 306 1156 182;" xml:space="preserve">
<style type="text/css">
	.st0{fill:#1E1E1E;}
</style>
<polygon class="st0" points="830,335.3 253.5,334.3 256.5,333.3 822,333.3 "/>
<polygon class="st0" points="642.5,386.3 311.5,385.3 311.2,384.3 631.7,384.3 "/>
<polygon class="st0" points="381.3,422.9 50.4,422.3 50,421.7 370.5,421.7 "/>
<polygon class="st0" points="400,428.2 69,427.6 68.7,427 389.2,427 "/>
<polygon class="st0" points="727.8,399.7 396.9,398.7 396.5,397.7 717,397.7 "/>
<polygon class="st0" points="530.5,359.9 73.5,358.9 76.5,357.9 522.5,357.9 "/>
<polygon class="st0" points="1111,421.4 534.5,420.4 537.5,419.4 1103,419.4 "/>
<polygon class="st0" points="949,435.7 372.5,434.7 375.5,433.7 941,433.7 "/>
<polygon class="st0" points="811.5,451 354.5,450 357.5,449 803.5,449 "/>
<polygon class="st0" points="311.2,402 -19.8,401 -20.1,400 300.4,400 "/>
<polygon class="st0" points="1020.2,373.7 689.2,372.7 688.9,371.7 1009.4,371.7 "/>
</svg>
