<?xml version="1.0" encoding="utf-8"?>
<!-- Generator: Adobe Illustrator 19.1.0, SVG Export Plug-In . SVG Version: 6.00 Build 0)  -->
<svg version="1.1" id="Layer_1" xmlns="http://www.w3.org/2000/svg" xmlns:xlink="http://www.w3.org/1999/xlink" x="0px" y="0px"
	 viewBox="-353 140.3 516.8 513.7" style="enable-background:new -353 140.3 516.8 513.7;" xml:space="preserve">
<style type="text/css">
	.st0{fill:#FFFFFF;}
	.st1{fill:#1E1E1E;}
	.st2{fill:#FFFFFF;stroke:#1E1E1E;stroke-width:2.285;stroke-miterlimit:10;}
	.st3{fill:none;stroke:#1E1E1E;stroke-width:2.285;stroke-miterlimit:10;}
	.st4{fill:none;stroke:#1E1E1E;stroke-width:2.6787;stroke-miterlimit:10;}
	.st5{fill:#FFFFFF;stroke:#000000;stroke-width:2.285;stroke-miterlimit:10;}
</style>
<rect x="-353" y="140.3" class="st0" width="516.8" height="513.7"/>
<g id="Layer_3">
</g>
<g id="Layer_1_1_">
	<g>
		<path class="st1" d="M-94.6,144.1c-139.9,0-253.4,113.5-253.4,253.4s113.5,253.4,253.4,253.4s253.4-113.6,253.4-253.5
			S45.4,144.1-94.6,144.1z"/>
	</g>
</g>
<g id="Layer_2">
	<path class="st2" d="M-169.6,361.5c7.2,6.9,13.1,7.5,13.1,7.5c35.7,5.9,39.2,11.4,39.2,11.4c15.6,14.3,1.4,22.8,1.4,22.8l-26.4,3.8
		c-15.2,1.6-26.3-1.1-26.3-1.1l-41.7-17c-15.3-10.7,6.1-38.1,6.1-38.1c13.7-10.5,48.7-3.2,48.7-3.2c19.5,0.4,52.7-7.6,52.7-7.6
		c11-1.5,10.3-19.9,10.3-19.9c0.1-4.9-20.7-44.2-20.7-44.2c-22.3-46.1,6.2-61.2,6.2-61.2c9.8-4.7,13.3-0.1,13.3-0.1l11.3,31.5
		c8.2,9.3,14.6,27.6,14.6,27.6c4.9,9.2,24.8,26.5,24.8,26.5c12.3,8.5,17.8,19.5,17.8,19.5l27.4,65.9c3.9,8.9,4.2,9.1,4.2,9.1
		s151.4,8.4,151,13.3c-6,78.6-40.8,127.5-40.8,127.5l-74.7-28c0,0-22.3-6.6-41.6-3.1c0,0-12.6,7.5-31.8,10.9c0,0-48.4,14.5-67.6,10
		c0,0-6.2-1-12.7,1.7c0,0-3,5.2-16.3-1.7c0,0-12.4-3.2-19-3.9c0,0-21.4-4-28.8-9.7"/>
	<path class="st2" d="M-183.8,483.8c0,0-13.2,15.8,1.4,26.6c0,0,5.8,6.3,48.3-6.5c0,0,19.3-7,24.3-16.3c0,0,3.7-7.3-1.7-15.1
		c0,0-4.1-4.8-10.2-4.8"/>
	<path class="st2" d="M-203.3,440.3c0,0-10.7,9.9-8.1,24.3c0,0,5.6,22.7,31.4,18.8c0,0,45.9-9,48.7-12c0,0,21.9-5.9,23.8-20
		c0,0,1.2-12.4-14.1-17.9"/>
	<path class="st2" d="M-201,392.8c0,0-17.6,8.4-19.7,17.5c0,0-6.7,24.2,14.4,29.6c0,0,40.7,5.5,57.6,1.9c0,0,23.5-5.7,24.5-6.8
		c0,0,6.9-2.1,7.2-13.2c0,0,1.3-11.5-7-17.4"/>
	<path class="st1" d="M-116.2,503.3c0,0-0.7,15.6,3.9,24.7c0,0-4.8,3-7.1,0.7C-119.4,528.8-118.5,511-116.2,503.3z"/>
	<path class="st1" d="M-148.3,510.1l-3.4,10.9l4.8,0.6C-146.8,521.5-150.2,517.8-148.3,510.1z"/>
	<path class="st3" d="M-119.9,408.8c0,0-10.1-1.3-11.5,4.8c0,0-2.7,16.2,4.4,16.8c3.2,0.3,7.9-1.3,7.9-1.3"/>
	<path class="st4" d="M-114.3,437.5c0,0-11,1-11.1,6.3c0,0,2,4.8,4,12.3c1.9,7.3,8.2,0.7,13-1.4"/>
	<path class="st4" d="M-116.4,468.8l-8.9,4.4c0,0-0.7,2.3,1.2,8.3c0,0,1.2,6,8,5l7-1.6"/>
	<path class="st1" d="M-134,480.1c0,0,7.5,10.4,6.4,13.9c0,0,0.7,5.5-13.9,8C-141.5,501.8-123,497.1-134,480.1z"/>
	<path class="st1" d="M-139.8,417.3c0,0,5.6,17.1-2.6,19.9c0,0-33.2,5.6-63-1.9c0,0,55.8,4.8,60.3-1.8
		C-145.1,433.5-141.2,432-139.8,417.3z"/>
	<path class="st1" d="M-135.9,446.8c0,0,7.2,8.2,5.8,17.7c0,0,1,1.5-5.3,3.5l-45.2,9.8c0,0-12.4,1.6-17-3c0,0,11.6,3.2,22.1-1.2
		l34.1-9.1C-141.3,464.5-131.6,461.8-135.9,446.8z"/>
	<path class="st1" d="M14.6,405.8c0,0-10.3,19.7-10.2,33.3c0,0,0.7,13.2-1.1,17.7c0,0-3.6,14.5-2.5,18.5c0,0,1.7,12.7-0.4,19.5
		c0,0,2.6,0.4,4.5-23.7c0,0,3-12.8,6.1-34.9C10.9,436.1,8.8,423.1,14.6,405.8z"/>
	<path class="st1" d="M21.5,439.5c0,0-2.2,19.4-4.3,26.2c0,0-0.6,32.7-7.7,38.1l4.2-0.9c0,0,6.9-32.2,6.1-38.8
		C19.8,464,24.7,449,21.5,439.5z"/>
	<path class="st1" d="M26,476.5c0,0,3.7-19.2,3.7-26.3c0,0,9.2-31.4,4-38.6l3.7,2.2c0,0-3,32.8-5.8,38.8
		C31.7,452.6,31.9,468.5,26,476.5z"/>
	<path class="st1" d="M-101.9,505.3c0,0-1.9,18.3,13.6,18c0,0,65.8-3.8,83.1-15.7c0,0-27.1,10.4-68.4,17.6
		C-73.6,525.1-109.7,536.7-101.9,505.3z"/>
	<path class="st1" d="M-207.3,408.8c0,0-4.1-2.1-7.1,0.5c0,0-6,6.7,2.1,21.2c0,0-4.6-7.6,0.8-18.5L-207.3,408.8z"/>
	<path class="st1" d="M-9.2,489.3c0,0,0.5,8.9-3.5,11.3c0,0-48.3,12.8-65.6,14.2C-78.3,514.8-14.6,502.1-9.2,489.3z"/>
	<path class="st1" d="M-111.4,218.1c0,0-19.8,23.7,1.5,59.2c0,0,7.3-1,10.2-2.9c0,0-10,8.2-7.2,13.7
		C-106.8,288.1-136.1,243.4-111.4,218.1z"/>
	<path class="st1" d="M-95.8,474c0,0,20.7-17.1,21.9-27.1c0,0-28.6-45.1-18.5-83.7c0,0,6-14.6,5.7-12.4s-5.4,19.2-4.1,30
		c0,0,0,37,24.2,66C-66.6,446.8-85.2,474-95.8,474z"/>
	<path class="st1" d="M-23.6,350.6c0,0,13,23.1,16.7,39.7c3.7,16.6,4.8,22.5-2.9,33.7c0,0-7.3,16-15.9,25.9c0,0,12.7-25.5,13.6-45.8
		C-12,404.1-9.2,384.5-23.6,350.6z"/>
	<path class="st4" d="M-99.8,212.6c0,0,4.8,19.8,7.7,27.7c2.9,7.9,9.8,5.8,9.8,5.8"/>
	<path class="st1" d="M-132.6,351.8c0,0,3.7,9.8,2.7,21.8l3.6,1.1C-126.4,374.6-128.7,355.5-132.6,351.8z"/>
	<path class="st1" d="M-153.5,352.5c0,0,5.1,9.1,2.7,17.6l-5.7-1C-156.5,369.1-152.5,367.5-153.5,352.5z"/>
	<path class="st1" d="M-102.5,347.1c0,0-14.8,11.9-14.8,33.3l-4.9-4.5C-122.2,376-118.8,354.3-102.5,347.1z"/>
	<path class="st1" d="M-78.4,296.8l11.8,22.1c0,0-0.7,14.5-7.1,23C-73.7,342-63.1,323.8-78.4,296.8z"/>
	<path class="st1" d="M-195.3,359.8c0,0-13.5,8.9-13.1,21l5.9,2.6C-202.5,383.3-210.4,380.5-195.3,359.8z"/>
	<path class="st5" d="M-203.4,391.8c0,0,33.8,14,34.8,14.2c0,0,12.6,4.8,51.7-2.6"/>
	<path class="st1" d="M-142.4,383.3c0,0-6,19.6-11.3,19.9c0,0-7.4,1.9-17.6-3.1l-20.3-9.5c0,0,34.5,15.2,37.2,8.6
		C-154.5,399.1-142.3,386.1-142.4,383.3z"/>
	<path class="st3" d="M-113.8,384.1c0,0-13.1-1.3-16.6-0.2c-4.2,1.3-8.1,4.8-2.3,21.9"/>
	<path class="st1" d="M40.5,403.5c0,0,67.8,6.9,79,10.1c0,0,25.1,2.4,30.5,4.3C150,417.8,146.3,412.3,40.5,403.5z"/>
</g>
<path class="st1" d="M-203.4,450.4c0,0-6.4,9.1,0,18.5c0,0-2.9-17.3,4.4-20.3C-199,448.5-202.3,448.4-203.4,450.4z"/>
<path class="st1" d="M-183,489.8c0,0-2.5,3.9-2.2,5.1c0,0-1,6.9,8.5,12.9C-176.8,507.8-186.7,502-183,489.8z"/>
</svg>
