<?xml version="1.0" encoding="utf-8"?>
<!-- Generator: Adobe Illustrator 19.1.0, SVG Export Plug-In . SVG Version: 6.00 Build 0)  -->
<svg version="1.1" id="Layer_1" xmlns="http://www.w3.org/2000/svg" xmlns:xlink="http://www.w3.org/1999/xlink" x="0px" y="0px"
	 viewBox="-3341 3344.3 516.8 513.7" style="enable-background:new -3341 3344.3 516.8 513.7;" xml:space="preserve">
<style type="text/css">
	.st0{fill:#1E1E1E;}
	.st1{fill:#FFFFFF;stroke:#1E1E1E;stroke-width:2.3023;stroke-miterlimit:10;}
	.st2{fill:none;stroke:#1E1E1E;stroke-width:2.3023;stroke-miterlimit:10;}
	.st3{fill:none;stroke:#1E1E1E;stroke-width:2.6989;stroke-miterlimit:10;}
	.st4{fill:#FFFFFF;stroke:#000000;stroke-width:2.3023;stroke-miterlimit:10;}
</style>
<g id="Layer_3">
</g>
<g id="Layer_1_1_">
	<g>
		<path class="st0" d="M-3082.6,3345.5c-141,0-255.3,114.4-255.3,255.3s114.4,255.3,255.3,255.3c141,0,255.3-114.5,255.3-255.4
			C-2827.3,3459.7-2941.5,3345.5-3082.6,3345.5z"/>
	</g>
</g>
<g id="Layer_2">
	<path class="st1" d="M-3158.2,3564.5c7.3,7,13.2,7.6,13.2,7.6c36,5.9,39.5,11.5,39.5,11.5c15.7,14.4,1.4,23,1.4,23l-26.6,3.8
		c-15.3,1.6-26.5-1.1-26.5-1.1l-42-17.1c-15.4-10.8,6.1-38.4,6.1-38.4c13.8-10.6,49.1-3.2,49.1-3.2c19.6,0.4,53.1-7.7,53.1-7.7
		c11.1-1.5,10.4-20.1,10.4-20.1c0.1-4.9-20.9-44.5-20.9-44.5c-22.5-46.4,6.2-61.7,6.2-61.7c9.9-4.7,13.4-0.1,13.4-0.1l11.4,31.7
		c8.3,9.4,14.7,27.8,14.7,27.8c4.9,9.3,25,26.7,25,26.7c12.4,8.6,17.9,19.6,17.9,19.6l27.6,66.4c3.9,9,4.2,9.2,4.2,9.2
		s152.5,8.5,152.1,13.4c-6,79.2-41.1,128.5-41.1,128.5l-75.3-28.2c0,0-22.5-6.6-41.9-3.1c0,0-12.7,7.6-32,11
		c0,0-48.8,14.6-68.1,10.1c0,0-6.2-1-12.8,1.7c0,0-3,5.2-16.4-1.7c0,0-12.5-3.2-19.1-3.9c0,0-21.6-4-29-9.8"/>
	<path class="st1" d="M-3172.5,3687.8c0,0-13.3,15.9,1.4,26.8c0,0,5.8,6.3,48.7-6.5c0,0,19.4-7.1,24.5-16.4c0,0,3.7-7.4-1.7-15.2
		c0,0-4.1-4.8-10.3-4.8"/>
	<path class="st1" d="M-3192.1,3643.9c0,0-10.8,10-8.2,24.5c0,0,5.6,22.9,31.6,18.9c0,0,46.2-9.1,49.1-12.1c0,0,22.1-5.9,24-20.2
		c0,0,1.2-12.5-14.2-18"/>
	<path class="st1" d="M-3189.8,3596.1c0,0-17.7,8.5-19.8,17.6c0,0-6.8,24.4,14.5,29.8c0,0,41,5.5,58,1.9c0,0,23.7-5.7,24.7-6.9
		c0,0,7-2.1,7.3-13.3c0,0,1.3-11.6-7.1-17.5"/>
	<path class="st0" d="M-3104.4,3707.4c0,0-0.7,15.7,3.9,24.9c0,0-4.8,3-7.2,0.7C-3107.6,3733.1-3106.7,3715.2-3104.4,3707.4z"/>
	<path class="st0" d="M-3136.7,3714.2l-3.4,11l4.8,0.6C-3135.2,3725.7-3138.6,3722-3136.7,3714.2z"/>
	<path class="st2" d="M-3108.1,3612.2c0,0-10.2-1.3-11.6,4.8c0,0-2.7,16.3,4.4,16.9c3.2,0.3,8-1.3,8-1.3"/>
	<path class="st3" d="M-3102.4,3641.1c0,0-11.1,1-11.2,6.3c0,0,2,4.8,4,12.4c1.9,7.4,8.3,0.7,13.1-1.4"/>
	<path class="st3" d="M-3104.6,3672.6l-9,4.4c0,0-0.7,2.3,1.2,8.4c0,0,1.2,6,8.1,5l7.1-1.6"/>
	<path class="st0" d="M-3122.3,3684c0,0,7.6,10.5,6.4,14c0,0,0.7,5.5-14,8.1C-3129.9,3705.9-3111.2,3701.2-3122.3,3684z"/>
	<path class="st0" d="M-3128.1,3620.7c0,0,5.6,17.2-2.6,20.1c0,0-33.5,5.6-63.5-1.9c0,0,56.2,4.8,60.8-1.8
		C-3133.5,3637.1-3129.6,3635.6-3128.1,3620.7z"/>
	<path class="st0" d="M-3124.2,3650.5c0,0,7.3,8.3,5.8,17.8c0,0,1,1.5-5.3,3.5l-45.5,9.9c0,0-12.5,1.6-17.1-3c0,0,11.7,3.2,22.3-1.2
		l34.4-9.2C-3129.7,3668.3-3119.9,3665.6-3124.2,3650.5z"/>
	<path class="st0" d="M-2972.6,3609.2c0,0-10.4,19.8-10.3,33.6c0,0,0.7,13.3-1.1,17.8c0,0-3.6,14.6-2.5,18.6c0,0,1.7,12.8-0.4,19.6
		c0,0,2.6,0.4,4.5-23.9c0,0,3-12.9,6.1-35.2C-2976.3,3639.7-2978.4,3626.6-2972.6,3609.2z"/>
	<path class="st0" d="M-2965.6,3643.1c0,0-2.2,19.5-4.3,26.4c0,0-0.6,32.9-7.8,38.4l4.2-0.9c0,0,7-32.4,6.1-39.1
		C-2967.3,3667.8-2962.4,3652.7-2965.6,3643.1z"/>
	<path class="st0" d="M-2961.1,3680.4c0,0,3.7-19.3,3.7-26.5c0,0,9.3-31.6,4-38.9l3.7,2.2c0,0-3,33-5.8,39.1
		C-2955.3,3656.3-2955.1,3672.3-2961.1,3680.4z"/>
	<path class="st0" d="M-3090,3709.4c0,0-1.9,18.4,13.7,18.1c0,0,66.3-3.8,83.7-15.8c0,0-27.3,10.5-68.9,17.7
		C-3061.4,3729.4-3097.8,3741.1-3090,3709.4z"/>
	<path class="st0" d="M-3196.2,3612.2c0,0-4.1-2.1-7.2,0.5c0,0-6,6.8,2.1,21.4c0,0-4.6-7.7,0.8-18.6L-3196.2,3612.2z"/>
	<path class="st0" d="M-2996.6,3693.3c0,0,0.5,9-3.5,11.4c0,0-48.7,12.9-66.1,14.3C-3066.2,3719-3002,3706.2-2996.6,3693.3z"/>
	<path class="st0" d="M-3099.5,3420c0,0-19.9,23.9,1.5,59.6c0,0,7.4-1,10.3-2.9c0,0-10.1,8.3-7.3,13.8
		C-3094.9,3490.6-3124.4,3445.5-3099.5,3420z"/>
	<path class="st0" d="M-3083.8,3677.9c0,0,20.9-17.2,22.1-27.3c0,0-28.8-45.4-18.6-84.3c0,0,6-14.7,5.7-12.5s-5.4,19.3-4.1,30.2
		c0,0,0,37.3,24.4,66.5C-3054.4,3650.5-3073.1,3677.9-3083.8,3677.9z"/>
	<path class="st0" d="M-3011.1,3553.5c0,0,13.1,23.3,16.8,40c3.7,16.7,4.8,22.7-2.9,34c0,0-7.4,16.1-16,26.1
		c0,0,12.8-25.7,13.7-46.1C-2999.4,3607.4-2996.6,3587.7-3011.1,3553.5z"/>
	<path class="st3" d="M-3087.8,3414.5c0,0,4.8,19.9,7.8,27.9c2.9,8,9.9,5.8,9.9,5.8"/>
	<path class="st0" d="M-3120.9,3554.8c0,0,3.7,9.9,2.7,22l3.6,1.1C-3114.6,3577.7-3117,3558.5-3120.9,3554.8z"/>
	<path class="st0" d="M-3141.9,3555.5c0,0,5.1,9.2,2.7,17.7l-5.7-1C-3145,3572.2-3140.9,3570.6-3141.9,3555.5z"/>
	<path class="st0" d="M-3090.6,3550c0,0-14.9,12-14.9,33.6l-4.9-4.5C-3110.4,3579.1-3107,3557.3-3090.6,3550z"/>
	<path class="st0" d="M-3066.3,3499.3l11.9,22.3c0,0-0.7,14.6-7.2,23.2C-3061.5,3544.9-3050.9,3526.5-3066.3,3499.3z"/>
	<path class="st0" d="M-3184.1,3562.8c0,0-13.6,9-13.2,21.2l5.9,2.6C-3191.3,3586.5-3199.3,3583.7-3184.1,3562.8z"/>
	<path class="st4" d="M-3192.2,3595.1c0,0,34.1,14.1,35.1,14.3c0,0,12.7,4.8,52.1-2.6"/>
	<path class="st0" d="M-3130.8,3586.5c0,0-6,19.7-11.4,20.1c0,0-7.5,1.9-17.7-3.1l-20.5-9.6c0,0,34.8,15.3,37.5,8.7
		C-3143,3602.4-3130.7,3589.3-3130.8,3586.5z"/>
	<path class="st2" d="M-3101.9,3587.3c0,0-13.2-1.3-16.7-0.2c-4.2,1.3-8.2,4.8-2.3,22.1"/>
	<path class="st0" d="M-2946.5,3606.8c0,0,68.3,7,79.6,10.2c0,0,25.3,2.4,30.7,4.3C-2836.2,3621.3-2839.9,3615.7-2946.5,3606.8z"/>
</g>
<path class="st0" d="M-3192.2,3654.1c0,0-6.4,9.2,0,18.6c0,0-2.9-17.4,4.4-20.5C-3187.8,3652.2-3191.1,3652.1-3192.2,3654.1z"/>
<path class="st0" d="M-3171.7,3693.8c0,0-2.5,3.9-2.2,5.1c0,0-1,7,8.6,13C-3165.4,3711.9-3175.4,3706.1-3171.7,3693.8z"/>
</svg>
