<?xml version="1.0" encoding="utf-8"?>
<!-- Generator: Adobe Illustrator 19.1.0, SVG Export Plug-In . SVG Version: 6.00 Build 0)  -->
<svg version="1.1" id="Layer_2" xmlns="http://www.w3.org/2000/svg" xmlns:xlink="http://www.w3.org/1999/xlink" x="0px" y="0px"
	 viewBox="-150.7 45.3 544.2 523.7" style="enable-background:new -150.7 45.3 544.2 523.7;" xml:space="preserve">
<style type="text/css">
	.ft0{fill:#1E1E1E;stroke:#1E1E1E;stroke-width:8;stroke-miterlimit:10;}
	.ft1{fill:#FFFFFF;stroke:#1E1E1E;stroke-width:2.3023;stroke-miterlimit:10;}
	.ft2{fill:#1E1E1E;}
	.ft3{fill:none;stroke:#1E1E1E;stroke-width:2.3023;stroke-miterlimit:10;}
	.ft4{fill:none;stroke:#1E1E1E;stroke-width:2.6989;stroke-miterlimit:10;}
	.ft5{fill:#FFFFFF;stroke:#000000;stroke-width:2.3023;stroke-miterlimit:10;}
</style>
<g id="Layer_1_2_">
	<g>
		<path class="ft0" d="M121.4,51.8c-141,0-255.3,114.4-255.3,255.3s114.4,255.3,255.3,255.3c141,0,255.3-114.5,255.3-255.4
			C376.7,166,262.5,51.8,121.4,51.8z"/>
	</g>
</g>
<g id="Layer_2_1_">
	<path class="ft1" d="M46.1,270.8c7.3,7,13.2,7.6,13.2,7.6c36,5.9,39.5,11.5,39.5,11.5c15.7,14.4,1.4,23,1.4,23l-26.6,3.8
		c-15.3,1.6-26.5-1.1-26.5-1.1l-42-17.1c-15.4-10.8,6.1-38.4,6.1-38.4c13.8-10.6,49.1-3.2,49.1-3.2c19.6,0.4,53.1-7.7,53.1-7.7
		c11.1-1.5,10.4-20.1,10.4-20.1c0.1-4.9-20.9-44.5-20.9-44.5c-22.5-46.4,6.2-61.7,6.2-61.7c9.9-4.7,13.4-0.1,13.4-0.1l11.4,31.7
		c8.3,9.4,14.7,27.8,14.7,27.8c4.9,9.3,25,26.7,25,26.7c12.4,8.6,17.9,19.6,17.9,19.6l27.6,66.4c3.9,9,4.2,9.2,4.2,9.2
		s152.5,8.5,152.1,13.4c-6,79.2-41.1,128.5-41.1,128.5L259,417.9c0,0-22.5-6.6-41.9-3.1c0,0-12.7,7.6-32,11c0,0-48.8,14.6-68.1,10.1
		c0,0-6.2-1-12.8,1.7c0,0-3,5.2-16.4-1.7c0,0-12.5-3.2-19.1-3.9c0,0-21.6-4-29-9.8"/>
	<path class="ft1" d="M31.8,394.1c0,0-13.3,15.9,1.4,26.8c0,0,5.8,6.3,48.7-6.5c0,0,19.4-7.1,24.5-16.4c0,0,3.7-7.4-1.7-15.2
		c0,0-4.1-4.8-10.3-4.8"/>
	<path class="ft1" d="M12.2,350.2c0,0-10.8,10-8.2,24.5c0,0,5.6,22.9,31.6,18.9c0,0,46.2-9.1,49.1-12.1c0,0,22.1-5.9,24-20.2
		c0,0,1.2-12.5-14.2-18"/>
	<path class="ft1" d="M14.5,302.4c0,0-17.7,8.5-19.8,17.6c0,0-6.8,24.4,14.5,29.8c0,0,41,5.5,58,1.9c0,0,23.7-5.7,24.7-6.9
		c0,0,7-2.1,7.3-13.3c0,0,1.3-11.6-7.1-17.5"/>
	<path class="ft2" d="M99.9,413.7c0,0-0.7,15.7,3.9,24.9c0,0-4.8,3-7.2,0.7C96.7,439.4,97.6,421.5,99.9,413.7z"/>
	<path class="ft2" d="M67.6,420.5l-3.4,11l4.8,0.6C69.1,432,65.7,428.3,67.6,420.5z"/>
	<path class="ft3" d="M96.2,318.5c0,0-10.2-1.3-11.6,4.8c0,0-2.7,16.3,4.4,16.9c3.2,0.3,8-1.3,8-1.3"/>
	<path class="ft4" d="M101.9,347.4c0,0-11.1,1-11.2,6.3c0,0,2,4.8,4,12.4c1.9,7.4,8.3,0.7,13.1-1.4"/>
	<path class="ft4" d="M99.7,378.9l-9,4.4c0,0-0.7,2.3,1.2,8.4c0,0,1.2,6,8.1,5l7.1-1.6"/>
	<path class="ft2" d="M82,390.3c0,0,7.6,10.5,6.4,14c0,0,0.7,5.5-14,8.1C74.4,412.2,93.1,407.5,82,390.3z"/>
	<path class="ft2" d="M76.2,327c0,0,5.6,17.2-2.6,20.1c0,0-33.5,5.6-63.5-1.9c0,0,56.2,4.8,60.8-1.8C70.8,343.4,74.7,341.9,76.2,327
		z"/>
	<path class="ft2" d="M80.1,356.8c0,0,7.3,8.3,5.8,17.8c0,0,1,1.5-5.3,3.5L35.1,388c0,0-12.5,1.6-17.1-3c0,0,11.7,3.2,22.3-1.2
		l34.4-9.2C74.6,374.6,84.4,371.9,80.1,356.8z"/>
	<path class="ft2" d="M231.7,315.5c0,0-10.4,19.8-10.3,33.6c0,0,0.7,13.3-1.1,17.8c0,0-3.6,14.6-2.5,18.6c0,0,1.7,12.8-0.4,19.6
		c0,0,2.6,0.4,4.5-23.9c0,0,3-12.9,6.1-35.2C228,346,225.9,332.9,231.7,315.5z"/>
	<path class="ft2" d="M243.2,386.7c0,0,3.7-19.3,3.7-26.5c0,0,9.3-31.6,4-38.9l3.7,2.2c0,0-3,33-5.8,39.1
		C249,362.6,249.2,378.6,243.2,386.7z"/>
	<path class="ft2" d="M114.3,415.7c0,0-1.9,18.4,13.7,18.1c0,0,66.3-3.8,83.7-15.8c0,0-27.3,10.5-68.9,17.7
		C142.9,435.7,106.5,447.4,114.3,415.7z"/>
	<path class="ft2" d="M8.1,318.5c0,0-4.1-2.1-7.2,0.5c0,0-6,6.8,2.1,21.4c0,0-4.6-7.7,0.8-18.6L8.1,318.5z"/>
	<path class="ft2" d="M207.7,399.6c0,0,0.5,9-3.5,11.4c0,0-48.7,12.9-66.1,14.3C138.1,425.3,202.3,412.5,207.7,399.6z"/>
	<path class="ft2" d="M104.8,126.3c0,0-19.9,23.9,1.5,59.6c0,0,7.4-1,10.3-2.9c0,0-10.1,8.3-7.3,13.8
		C109.4,196.9,79.9,151.8,104.8,126.3z"/>
	<path class="ft2" d="M120.5,384.2c0,0,20.9-17.2,22.1-27.3c0,0-28.8-45.4-18.6-84.3c0,0,6-14.7,5.7-12.5s-5.4,19.3-4.1,30.2
		c0,0,0,37.3,24.4,66.5C149.9,356.8,131.2,384.2,120.5,384.2z"/>
	<path class="ft2" d="M193.2,259.8c0,0,13.1,23.3,16.8,40s4.8,22.7-2.9,34c0,0-7.4,16.1-16,26.1c0,0,12.8-25.7,13.7-46.1
		C204.9,313.7,207.7,294,193.2,259.8z"/>
	<path class="ft4" d="M116.5,120.8c0,0,4.8,19.9,7.8,27.9c2.9,8,9.9,5.8,9.9,5.8"/>
	<path class="ft2" d="M83.4,261.1c0,0,3.7,9.9,2.7,22l3.6,1.1C89.7,284,87.3,264.8,83.4,261.1z"/>
	<path class="ft2" d="M62.4,261.8c0,0,5.1,9.2,2.7,17.7l-5.7-1C59.3,278.5,63.4,276.9,62.4,261.8z"/>
	<path class="ft2" d="M113.7,256.3c0,0-14.9,12-14.9,33.6l-4.9-4.5C93.9,285.4,97.3,263.6,113.7,256.3z"/>
	<path class="ft2" d="M138,205.6l11.9,22.3c0,0-0.7,14.6-7.2,23.2C142.8,251.2,153.4,232.8,138,205.6z"/>
	<path class="ft2" d="M20.2,269.1c0,0-13.6,9-13.2,21.2l5.9,2.6C13,292.8,5,290,20.2,269.1z"/>
	<path class="ft5" d="M12.1,301.4c0,0,34.1,14.1,35.1,14.3c0,0,12.7,4.8,52.1-2.6"/>
	<path class="ft2" d="M73.5,292.8c0,0-6,19.7-11.4,20.1c0,0-7.5,1.9-17.7-3.1l-20.5-9.6c0,0,34.8,15.3,37.5,8.7
		C61.3,308.7,73.6,295.6,73.5,292.8z"/>
	<path class="ft3" d="M102.4,293.6c0,0-13.2-1.3-16.7-0.2c-4.2,1.3-8.2,4.8-2.3,22.1"/>
	<path class="ft2" d="M257.8,313.1c0,0,68.3,7,79.6,10.2c0,0,25.3,2.4,30.7,4.3C368.1,327.6,364.4,322,257.8,313.1z"/>
</g>
<path class="ft2" d="M12.1,360.4c0,0-6.4,9.2,0,18.6c0,0-2.9-17.4,4.4-20.5C16.5,358.5,13.2,358.4,12.1,360.4z"/>
<path class="ft2" d="M32.6,400.1c0,0-2.5,3.9-2.2,5.1c0,0-1,7,8.6,13C38.9,418.2,28.9,412.4,32.6,400.1z"/>
<path class="ft2" d="M230.8,355.4c0.4-1.1,40.7,1.9,40.7,1.9s41.2,6,44.3,6.2c3.2,0.1,14.4,0,14.4,0c0.2,0-3.4,2-21.1,1
	C309.1,364.4,230.3,356.5,230.8,355.4z"/>
<path class="ft2" d="M296.7,372.2c-0.3,0.9-28.7-2.1-28.7-2.1s-39.1-7.6-26.7-6.6C241.3,363.5,297,371.3,296.7,372.2z"/>
</svg>
